<?xml version="1.0" encoding="UTF-8" standalone="no"?>
<!-- Created with Inkscape (http://www.inkscape.org/) -->
<svg
   xmlns:dc="http://purl.org/dc/elements/1.1/"
   xmlns:cc="http://web.resource.org/cc/"
   xmlns:rdf="http://www.w3.org/1999/02/22-rdf-syntax-ns#"
   xmlns:svg="http://www.w3.org/2000/svg"
   xmlns="http://www.w3.org/2000/svg"
   xmlns:sodipodi="http://sodipodi.sourceforge.net/DTD/sodipodi-0.dtd"
   xmlns:inkscape="http://www.inkscape.org/namespaces/inkscape"
   id="svg2"
   sodipodi:version="0.32"
   inkscape:version="0.45.1"
   width="1510"
   height="1098.42"
   version="1.0"
   sodipodi:docbase="C:\Documents and Settings\xy\Mes documents\Mes images"
   sodipodi:docname="selmer.svg"
   inkscape:output_extension="org.inkscape.output.svg.inkscape">
  <metadata
     id="metadata7">
    <rdf:RDF>
      <cc:Work
         rdf:about="">
        <dc:format>image/svg+xml</dc:format>
        <dc:type
           rdf:resource="http://purl.org/dc/dcmitype/StillImage" />
      </cc:Work>
    </rdf:RDF>
  </metadata>
  <defs
     id="defs5" />
  <sodipodi:namedview
     inkscape:window-height="712"
     inkscape:window-width="1024"
     inkscape:pageshadow="2"
     inkscape:pageopacity="0.0"
     guidetolerance="10.0"
     gridtolerance="10.0"
     objecttolerance="10.0"
     borderopacity="1.0"
     bordercolor="#666666"
     pagecolor="#ffffff"
     id="base"
     width="1510px"
     height="1098.42px"
     inkscape:zoom="0.474082"
     inkscape:cx="755"
     inkscape:cy="549.21005"
     inkscape:window-x="-4"
     inkscape:window-y="-4"
     inkscape:current-layer="svg2" />
  <path
     style="fill:#000000;fill-opacity:1;stroke:none;stroke-opacity:1"
     d="M 621.95598,1092.5382 C 616.84546,1091.4241 608.86672,1088.265 596.23624,1082.3547 C 590.47309,1079.6578 584.20029,1076.9076 582.29655,1076.2428 C 579.10983,1075.1301 577.85436,1074.2157 577.82932,1072.9894 C 577.824,1072.7274 578.25213,1072.513 578.78086,1072.513 C 579.8359,1072.513 593.50176,1066.5783 600.04656,1063.278 C 603.64344,1061.4642 637.62774,1046.7909 647.82665,1042.6482 C 649.83078,1041.8341 651.35079,1041.0484 651.20454,1040.9022 C 650.45057,1040.1483 643.71996,1042.4112 637.62479,1045.468 C 625.49847,1051.5496 617.63308,1052.5209 580.91224,1052.4715 C 556.25016,1052.4385 553.09171,1052.3212 552.17602,1051.4055 C 551.61028,1050.8397 551.14734,1050.0453 551.14734,1049.6401 C 551.14734,1048.054 561.18216,1034.469 565.72068,1029.9106 C 570.19608,1025.4157 577.57959,1019.8035 579.0174,1019.8035 C 579.3652,1019.8035 579.83196,1019.5086 580.05471,1019.1483 C 580.96837,1017.67 557.76123,1008.4551 550.50294,1007.4142 C 548.07883,1007.0665 546.16557,1007.5036 538.11936,1010.2429 C 524.77296,1014.7869 518.5072,1016.0044 506.37592,1016.4115 L 496.21505,1016.7526 L 485.66456,1014.189 C 479.86187,1012.779 469.00243,1010.5869 461.53247,1009.3174 C 446.07872,1006.6912 433.66214,1003.1172 433.66214,1001.2954 C 433.66214,999.46815 439.64563,991.05285 443.31941,987.71345 C 450.48245,981.20205 462.06764,976.23785 471.76543,975.52445 C 476.51576,975.17495 481.67572,973.31025 480.98509,972.19275 C 480.41564,971.27145 469.231,963.08535 465.09734,960.56445 C 457.87721,956.16155 452.80028,955.35975 444.45806,957.30545 C 442.10372,957.85455 435.5429,958.42595 429.18784,958.63535 C 408.39608,959.32055 398.07733,957.08295 384.78145,949.00625 C 374.28988,942.63285 352.24877,937.24635 336.66135,937.24635 C 333.11177,937.24635 332.68838,937.11105 332.68838,935.97635 C 332.68838,935.27775 332.94861,934.70615 333.26679,934.70615 C 333.58488,934.70615 334.44221,933.47285 335.17196,931.96535 C 337.14221,927.89535 341.91909,923.47355 346.98074,921.03435 C 351.23928,918.98225 360.08775,916.92705 364.68308,916.92275 C 365.77245,916.92185 370.09313,916.35105 374.28448,915.65465 C 378.47585,914.95805 383.97701,914.38715 386.5093,914.38625 C 390.24526,914.38475 391.11344,914.19875 391.11344,913.39935 C 391.11344,911.98995 361.32446,882.87315 356.38685,879.45635 L 352.25709,876.59865 L 344.52479,876.53145 C 334.10321,876.44075 330.50676,875.91705 322.2501,873.28755 C 306.4634,868.26015 301.37196,864.94205 275.13575,842.58365 C 272.0363,839.94245 268.64309,836.97675 267.59525,835.99335 C 266.54739,835.00995 263.42604,832.61175 260.65892,830.66405 C 257.89178,828.71625 254.47526,826.02645 253.06664,824.68635 L 250.50552,822.25005 L 253.32581,819.67205 C 259.20419,814.29855 265.48628,812.43255 275.85095,812.98095 C 283.20737,813.37025 289.34822,814.68405 304.3655,819.08135 C 309.2208,820.50315 313.29641,821.66645 313.42226,821.66645 C 313.54814,821.66645 309.08769,814.87925 303.51014,806.58375 C 292.27925,789.88035 286.83665,782.77485 281.6252,778.01175 C 278.61942,775.26465 277.42463,774.64295 272.86982,773.45615 C 260.44236,770.21775 252.38243,766.62795 245.05079,761.06565 C 234.83014,753.31175 231.01416,749.06235 221.81176,735.18825 C 216.65862,727.41905 213.28431,723.21125 206.43733,716.01605 C 197.47836,706.60155 194.41455,702.23355 194.104,698.43335 C 193.93158,696.32325 193.978,696.28175 197.10412,695.74815 C 203.28804,694.69265 215.11669,695.07545 220.54603,696.50685 C 229.16488,698.77905 244.48457,706.82765 251.90723,712.98305 C 254.8721,715.44185 257.68565,717.17835 258.05112,716.77505 C 258.1559,716.65935 256.84014,712.37775 255.12713,707.26055 C 249.65468,690.91185 248.94578,679.69425 252.99812,673.57085 C 255.87149,669.22895 262.9446,666.86525 267.71265,668.65365 C 271.15287,669.94395 275.85882,675.38865 278.57648,681.22275 C 283.88439,692.61755 285.84621,697.42725 286.16958,699.83805 C 286.35299,701.20535 286.80089,702.22475 287.16497,702.10325 C 287.52911,701.98185 288.59594,699.59435 289.53576,696.79725 C 292.91037,686.75415 299.08641,675.55355 305.48339,667.87535 C 308.86328,663.81855 321.32088,654.45665 322.18767,655.32215 C 322.54922,655.68305 322.79136,658.03635 322.72575,660.55185 C 322.19886,680.75655 322.17491,680.38115 324.77597,692.75025 C 327.0456,703.54305 327.245,705.29945 327.22716,714.34205 L 327.20772,724.18545 L 323.684,734.02875 C 321.74594,739.44255 319.08467,745.69715 317.77005,747.92765 C 315.09602,752.46455 312.36662,759.02415 312.36662,760.91375 C 312.36662,762.50925 316.98035,771.65805 321.09951,778.23075 C 329.79938,792.11255 337.04555,802.49055 337.39763,801.57305 C 337.60179,801.04095 337.77764,795.84225 337.78844,790.02045 C 337.82628,769.55925 340.65698,757.91415 347.47577,750.16775 C 350.25812,747.00675 358.82279,741.64935 361.09382,741.64935 C 361.887,741.64935 362.53596,741.36365 362.53596,741.01445 C 362.53596,740.66505 363.06764,740.37935 363.71748,740.37935 C 364.77848,740.37935 364.93514,741.10815 365.2533,747.52365 C 365.79386,758.42495 367.8936,765.37385 376.3352,784.19805 C 388.31032,810.90195 389.43944,820.15115 383.41658,842.20275 C 381.93917,847.61205 381.00107,852.25605 381.21427,853.10535 C 381.41851,853.91925 385.91533,858.68075 391.20718,863.68665 C 396.49895,868.69265 403.7149,875.55125 407.24251,878.92785 C 410.77018,882.30465 413.73302,884.99105 413.82656,884.89725 C 413.92018,884.80365 413.28277,881.75525 412.41007,878.12265 C 406.8395,854.93595 406.98098,840.50265 412.8757,830.63925 C 415.28035,826.61565 417.80321,824.84735 421.14347,824.84405 C 423.17287,824.84205 423.99793,825.30395 426.42485,827.80115 C 428.00684,829.42875 430.1168,832.35795 431.11378,834.31035 C 432.16531,836.36985 434.83343,839.72675 437.46853,842.30565 C 449.21044,853.79745 458.66132,866.09955 464.16034,877.04985 C 469.97605,888.63075 471.30463,895.28405 471.21629,912.38325 C 471.17477,920.41865 471.37639,923.17905 472.10836,924.59445 C 473.50757,927.30035 478.22998,930.56225 492.72224,938.83365 C 499.88248,942.92025 506.33085,946.80695 507.05188,947.47055 C 507.77299,948.13445 508.54344,948.67745 508.76412,948.67745 C 509.27413,948.67745 507.33513,943.01795 505.27557,938.49525 C 500.99561,929.09685 495.93448,912.21275 494.62862,902.97675 C 493.39801,894.27285 495.65404,888.97595 500.58728,888.98645 C 501.67538,888.98865 503.3149,889.48875 504.23077,890.09775 C 505.14666,890.70665 511.71948,896.88065 518.83705,903.81765 C 528.05448,912.80135 534.61041,918.54315 541.6215,923.77275 C 554.05552,933.04755 560.44018,939.43265 563.49705,945.64985 C 566.33797,951.42785 568.6774,960.59355 569.57658,969.46925 C 569.96973,973.34945 570.68032,976.93295 571.22098,977.76135 C 572.88376,980.30985 575.7459,981.49185 586.76079,984.17925 C 592.67028,985.62105 598.50217,987.27615 599.72053,987.85715 C 600.93895,988.43805 602.09859,988.75065 602.29765,988.55165 C 603.18385,987.66545 592.8478,963.20685 589.1287,957.38945 C 584.6499,950.38385 582.89319,942.52745 585.1008,939.37565 C 586.20309,937.80195 589.81128,935.97635 591.81924,935.97635 C 592.72843,935.97635 595.10758,937.75545 598.40035,940.89795 C 601.23676,943.60485 604.83939,946.67615 606.40618,947.72295 C 607.97293,948.76985 609.39777,949.77665 609.5724,949.96035 C 610.28415,950.70905 613.64554,952.63335 622.33516,957.26715 C 644.0771,968.86095 651.98649,976.22925 660.9861,993.27365 C 663.14835,997.36865 665.73543,1001.4073 666.73521,1002.2487 C 669.93924,1004.9448 685.26228,1009.9666 707.68839,1015.6707 C 729.03855,1021.1011 729.11286,1021.1077 741.27428,1018.6335 C 751.14327,1016.6256 763.54736,1013.5362 787.70534,1007.0691 C 808.84769,1001.4091 809.51225,1001.0047 817.89548,988.69365 C 825.58255,977.40495 838.02155,966.37715 851.21083,959.15795 C 858.17635,955.34555 863.47793,951.49475 867.51337,947.31695 C 871.97711,942.69575 881.02102,929.67345 881.73082,926.84535 C 882.03221,925.64435 882.56135,925.18035 883.62907,925.18035 C 884.94034,925.18035 885.29885,925.81505 886.76818,930.73715 C 887.68055,933.79325 889.04273,938.15135 889.79533,940.42175 C 890.85823,943.62825 891.16648,946.10865 891.17644,951.53505 C 891.18848,958.08645 891.07561,958.71815 889.35973,961.69605 C 887.0821,965.64875 883.73101,970.03815 875.95678,979.25115 L 869.88923,986.44185 L 871.6241,986.90585 C 876.58172,988.23165 899.47922,982.39575 907.67104,977.71865 C 911.20873,975.69875 912.23482,973.94895 914.08779,966.77645 C 915.99324,959.40095 922.01527,946.60875 925.59774,942.32685 C 928.12318,939.30825 931.65439,936.13175 946.77612,923.27525 C 968.0482,905.18955 979.42093,894.24425 980.21094,891.09665 C 980.62071,889.46405 982.98475,888.99635 982.98475,890.54775 C 982.98475,891.05955 983.82618,892.80515 984.8547,894.42675 C 986.98863,897.79175 988.70248,904.48625 988.69542,909.42935 C 988.68378,917.66775 985.98966,927.14885 980.34004,938.83415 C 978.48249,942.67605 976.85019,946.07805 976.71274,946.39415 C 976.39848,947.11665 985.96504,941.94045 993.32052,937.40825 C 1000.1532,933.19805 1006.1883,927.72905 1007.0256,924.98865 C 1007.367,923.87165 1007.7912,919.24265 1007.9681,914.70195 C 1008.512,900.74925 1011.1726,893.17605 1019.1236,882.94925 C 1025.1747,875.16575 1032.0614,863.98025 1038.71,851.13675 C 1043.1526,842.55455 1044.5542,840.35975 1045.6965,840.19755 C 1046.4823,840.08595 1047.1254,840.23595 1047.1254,840.53085 C 1047.1254,840.82575 1048.6274,842.65545 1050.4631,844.59675 C 1057.1543,851.67255 1059.1588,858.44015 1059.189,874.05845 C 1059.2169,888.42485 1058.9028,887.98065 1065.1278,882.45345 C 1074.8598,873.81225 1083.4561,865.16615 1085.7868,861.67485 C 1087.8443,858.59265 1088.0673,857.88335 1087.6829,855.64185 C 1086.6885,849.84315 1086.4145,840.69065 1087.0635,834.94685 C 1088.066,826.07445 1090.3456,818.06315 1095.7582,804.39065 C 1102.9325,786.26805 1103.004,786.06185 1106.4814,773.40795 C 1110.0508,760.41965 1110.4059,759.92325 1113.901,763.03715 C 1119.8587,768.34475 1123.8777,772.86195 1125.6804,776.27705 C 1128.4905,781.60035 1130.8737,790.24205 1131.7951,798.44865 L 1132.5752,805.39605 L 1134.998,802.43925 C 1143.4169,792.16515 1149.1359,782.22855 1149.7851,776.74685 C 1150.082,774.24035 1149.7917,772.76525 1148.2381,768.88545 C 1144.1814,758.75435 1143.3633,754.78085 1143.3492,745.14225 C 1143.3383,737.64005 1143.6071,735.10745 1145.0705,728.92595 C 1147.3181,719.43215 1147.941,712.91265 1148.7392,690.52745 C 1149.4694,670.04825 1149.6355,668.61815 1151.2825,668.61815 C 1151.9041,668.61815 1155.4519,670.03725 1159.1666,671.77185 C 1167.4764,675.65225 1171.3959,679.30845 1175.1878,686.71715 C 1178.2853,692.76935 1179.9447,697.66865 1182.042,706.95525 C 1182.8994,710.75145 1183.704,713.96045 1183.8301,714.08655 C 1183.9563,714.21275 1185.2454,712.23155 1186.6949,709.68375 C 1191.4211,701.37705 1195.8436,695.03945 1199.2603,691.67685 C 1203.0588,687.93855 1208.0843,685.12955 1210.9738,685.12955 C 1215.1177,685.12955 1222.5644,690.63225 1225.0719,695.54745 C 1226.9529,699.23445 1226.3846,708.48675 1223.7349,717.31565 C 1221.2867,725.47295 1220.6926,728.94845 1221.7463,728.94845 C 1222.6255,728.94845 1236.3085,724.23855 1239.2295,722.93045 C 1245.5039,720.12075 1261.8652,716.02205 1269.871,715.25445 L 1274.4751,714.81305 L 1274.4611,718.22915 C 1274.4452,722.14335 1273.1956,725.25635 1269.3927,730.85625 C 1258.781,746.48285 1227.4363,776.65745 1215.7325,782.51345 C 1213.9861,783.38715 1208.1278,785.44085 1202.7139,787.07705 C 1191.3326,790.51685 1189.0062,791.58015 1186.4206,794.52495 C 1182.7878,798.66255 1169.0559,819.81015 1169.0559,821.26745 C 1169.0559,821.82465 1176.9161,821.68115 1181.122,821.04705 C 1187.6763,820.05915 1202.3738,821.97335 1213.5603,825.27185 L 1219.0089,826.87835 L 1217.7074,831.52355 L 1216.4059,836.16885 L 1213.529,836.46425 C 1204.1696,837.42495 1198.7377,840.41715 1182.0051,853.82955 C 1167.7115,865.28685 1159.2855,871.23515 1151.0776,875.66235 C 1146.2273,878.27865 1143.9477,878.85425 1128.5729,881.34435 C 1124.2953,882.03705 1119.7031,883.16115 1118.3681,883.84235 C 1114.7128,885.70715 1110.383,889.32155 1100.2484,898.96815 C 1095.1935,903.77975 1089.4603,909.15365 1087.5081,910.91045 C 1085.5558,912.66725 1083.9585,914.45325 1083.9585,914.87945 C 1083.9585,915.46205 1086.9317,915.65465 1095.9324,915.65465 C 1122.2211,915.65465 1134.0464,917.84655 1134.6434,922.83035 C 1135.0882,926.54465 1132.7667,928.09035 1119.2041,933.11105 C 1111.9356,935.80175 1100.9008,941.40725 1090.3091,947.78945 C 1081.8072,952.91235 1073.5308,956.83925 1066.8121,958.93815 C 1062.805,960.18975 1060.6887,960.42585 1053.4759,960.42585 C 1045.8534,960.42585 1044.2424,960.22445 1038.9485,958.60895 C 1030.0374,955.88975 1027.5071,956.24045 1019.1298,961.35525 C 1000.475,972.74505 995.75019,975.47675 992.98686,976.46945 C 991.3278,977.06535 989.97036,977.73485 989.97036,977.95695 C 989.97036,978.17915 992.04222,978.55475 994.5745,978.79175 C 1015.3828,980.73905 1029.3924,986.76605 1033.9852,995.74665 C 1035.6567,999.01485 1035.7579,999.61725 1035.3433,1003.8253 L 1034.8952,1008.3726 L 1029.3319,1008.3726 C 1025.3549,1008.3726 1022.0739,1008.8329 1017.8243,1009.9872 C 986.51961,1018.4908 977.70708,1020.0819 964.28949,1019.6532 C 953.33058,1019.3029 948.49836,1017.8955 938.25091,1012.0689 C 932.52357,1008.8125 930.68253,1008.0745 927.7725,1007.8684 C 922.79212,1007.5155 915.76672,1009.4598 900.74513,1015.3485 C 893.75953,1018.0867 886.82945,1020.6834 885.34501,1021.1184 C 883.86058,1021.5535 882.64603,1022.0931 882.64603,1022.3172 C 882.64603,1022.5413 884.43211,1023.091 886.61516,1023.5388 C 888.79814,1023.9867 891.44159,1024.734 892.48939,1025.1994 C 909.91525,1032.9411 918.27723,1038.7212 926.82067,1048.93 C 928.89529,1051.4091 930.96894,1053.4429 931.42869,1053.4494 C 931.96212,1053.457 932.19193,1054.0855 932.06376,1055.1855 L 931.86285,1056.9097 L 925.8298,1056.736 C 922.51162,1056.6405 905.33985,1056.0195 887.67013,1055.356 C 850.32254,1053.9538 852.26071,1054.3135 840.19817,1046.5468 C 830.12981,1040.0641 825.52879,1038.0075 821.10623,1038.0124 C 818.85496,1038.015 816.69599,1038.4611 815.2144,1039.2297 L 812.87584,1040.4427 L 824.42267,1047.0693 C 847.20347,1060.1428 869.06888,1073.0439 873.28838,1075.9008 C 875.65127,1077.5007 878.58041,1078.9965 879.79774,1079.2248 C 881.67671,1079.5773 882.01102,1079.899 882.01102,1081.3555 L 882.01102,1083.0712 L 853.92718,1087.1109 L 825.8434,1091.1505 L 821.69815,1090.0723 C 816.78062,1088.7933 810.40951,1085.8585 802.41983,1081.1926 C 799.21679,1079.322 790.88059,1074.8445 783.89503,1071.2425 C 776.90941,1067.6406 765.62169,1061.6905 758.81105,1058.02 C 743.5109,1049.7744 741.13242,1048.7161 735.09753,1047.4696 C 723.92445,1045.1617 720.32114,1046.1261 700.0677,1056.8439 C 660.77771,1077.6355 629.16915,1093.4922 627.15852,1093.4194 C 626.39278,1093.3917 624.05163,1092.9951 621.95598,1092.5382 z M 630.98326,1081.6587 C 632.65465,1081.1002 636.45112,1079.2743 639.42002,1077.6006 C 642.38889,1075.9272 650.1048,1071.849 656.56649,1068.5382 C 673.5011,1059.8611 688.59795,1051.9164 698.82165,1046.3011 C 714.09708,1037.9116 722.95397,1035.5595 733.85988,1036.9963 C 741.1527,1037.9574 745.50912,1039.6492 758.17529,1046.4394 C 763.93836,1049.5291 771.9401,1053.6889 775.95677,1055.6835 C 783.65872,1059.5083 789.53729,1062.739 802.77331,1070.4213 C 811.53989,1075.5094 818.83532,1079.0254 822.89248,1080.1179 C 828.68545,1081.6779 854.06857,1078.2996 854.06857,1075.9686 C 854.06857,1075.51 852.42536,1074.2922 850.417,1073.2623 C 848.40869,1072.2324 843.33617,1069.3801 839.14475,1066.924 C 830.72695,1061.9913 819.24799,1055.4657 801.21131,1045.3597 C 790.46548,1039.3389 787.35239,1037.2912 788.09113,1036.7299 C 788.22823,1036.6257 791.48392,1035.5214 795.32597,1034.2756 C 799.16807,1033.03 805.17041,1030.9932 808.6645,1029.7494 C 816.91927,1026.8107 823.01254,1025.7796 826.52846,1026.7264 C 829.25321,1027.4601 834.53512,1030.8087 844.11383,1037.8752 C 851.7088,1043.478 853.49569,1043.95 869.62744,1044.6151 C 876.9623,1044.9174 887.67889,1045.6015 893.44202,1046.1352 C 899.2051,1046.6689 905.05008,1047.1068 906.43072,1047.1083 L 908.94108,1047.1108 L 906.4561,1044.5661 C 899.57629,1037.5204 875.60921,1029.5908 854.22059,1027.2835 C 850.27342,1026.8577 847.16044,1026.2392 847.27246,1025.9031 C 847.38418,1025.5678 849.31621,1024.6681 851.56586,1023.9033 C 853.81558,1023.1386 862.80058,1019.7318 871.5326,1016.3328 C 880.26461,1012.9338 891.98132,1008.4933 897.56984,1006.465 C 903.15831,1004.4369 910.15984,1001.7945 913.12872,1000.5934 C 926.54011,995.16755 928.66582,995.42415 944.93733,1004.4336 C 951.21529,1007.9097 957.92128,1009.5825 967.55155,1010.0745 L 975.29787,1010.4703 L 998.82801,1004.5192 C 1014.4315,1000.5729 1022.3582,998.29415 1022.3582,997.75485 C 1022.3582,997.30755 1022.0451,996.94155 1021.6624,996.94155 C 1021.2798,996.94155 1020.1348,996.34925 1019.1181,995.62535 C 1018.1014,994.90145 1015.4935,993.58725 1013.3226,992.70525 C 1006.4046,989.89415 998.52168,988.73265 981.39711,988.00145 C 963.43068,987.23405 958.09591,986.74275 957.79641,985.82805 C 957.68208,985.47885 959.80188,984.06975 962.50723,982.69695 C 965.21247,981.32405 968.85477,979.30175 970.60117,978.20285 C 973.33183,976.48475 983.80591,970.34115 1010.9272,954.54975 C 1014.2454,952.61765 1017.3889,950.66955 1017.9128,950.22065 C 1019.4586,948.89615 1026.6346,945.50175 1027.8793,945.50645 C 1028.5102,945.50885 1033.2997,946.66335 1038.5227,948.07215 C 1044.6948,949.73685 1050.0663,950.76795 1053.8668,951.01775 L 1059.7145,951.40185 L 1067.8674,947.43945 C 1072.3516,945.26015 1081.593,940.37745 1088.4039,936.58905 C 1095.2149,932.80085 1102.4307,929.07305 1104.439,928.30535 C 1106.4474,927.53745 1108.0907,926.66315 1108.0907,926.36235 C 1108.0907,925.35575 1077.3201,925.82795 1065.2245,927.02015 C 1058.9374,927.63975 1053.6931,928.06965 1053.5704,927.97535 C 1053.1681,927.66575 1056.2615,924.79925 1060.2178,921.81555 C 1067.3798,916.41425 1084.1036,901.37585 1099.1999,886.76205 C 1104.6137,881.52125 1110.568,876.25905 1112.4317,875.06835 C 1115.762,872.94075 1115.9833,872.89455 1125.319,872.38515 C 1134.154,871.90295 1135.1691,871.71455 1139.8432,869.68895 C 1145.24,867.35025 1157.6457,859.90805 1163.3404,855.59265 C 1165.2615,854.13695 1171.6573,848.90285 1177.5534,843.96105 C 1183.4495,839.01945 1189.0935,834.49185 1190.0958,833.89985 C 1191.0983,833.30765 1191.9179,832.27355 1191.9179,831.60075 C 1191.9179,830.43255 1191.5429,830.39825 1183.5034,830.83145 C 1171.3201,831.48795 1160.7702,833.66265 1154.1322,836.88585 C 1152.3638,837.74465 1145.9784,840.08235 1145.4002,840.08265 C 1144.5921,840.08325 1144.8723,838.86875 1145.9495,837.70155 C 1146.5136,837.09035 1149.5214,832.58925 1152.6334,827.69945 C 1155.7454,822.80945 1158.6474,818.37995 1159.0821,817.85615 C 1159.517,817.33205 1164.6903,809.53335 1170.5784,800.52515 C 1177.4496,790.01315 1181.8806,783.84075 1182.9494,783.29225 C 1183.8653,782.82215 1187.9012,781.55895 1191.9179,780.48525 C 1206.5648,776.56995 1213.0303,773.73005 1220.7684,767.81255 C 1224.9477,764.61665 1236.5802,753.27155 1244.0129,745.14225 C 1246.5677,742.34795 1250.9369,737.69885 1253.7222,734.81075 C 1256.5075,731.92245 1258.5983,729.37125 1258.3681,729.14115 C 1257.6002,728.37315 1248.3179,730.20615 1241.6133,732.44975 C 1233.9254,735.02225 1225.2023,739.37045 1216.7593,744.83855 L 1210.8006,748.69775 L 1209.3158,747.30285 C 1205.3525,743.57955 1205.6888,737.92725 1210.6723,724.50285 C 1215.489,711.52785 1216.8427,706.44635 1216.3673,703.12595 C 1215.9068,699.90935 1213.4381,697.19555 1210.9724,697.19555 C 1204.7768,697.19555 1190.2283,719.68845 1184.5403,738.06165 L 1183.3901,741.77705 L 1180.2954,741.36645 C 1174.3109,740.57255 1174.3787,740.73705 1173.8679,725.77305 C 1173.2612,707.99865 1170.8491,698.49435 1164.1799,687.59915 C 1162.2292,684.41235 1159.3827,681.88995 1158.6096,682.66295 C 1158.4516,682.82105 1158.153,689.37035 1157.946,697.21725 C 1157.5029,714.00545 1156.7897,721.65275 1154.7792,731.17095 C 1151.6782,745.85145 1152.0418,750.74675 1157.1579,763.19085 C 1159.9733,770.03915 1160.44,771.76875 1160.4266,775.30745 C 1160.4118,779.20505 1160.1868,779.82485 1156.3918,786.42075 C 1154.1812,790.26285 1151.554,794.60105 1150.5534,796.06115 C 1149.5528,797.52125 1148.7342,798.90425 1148.7342,799.13475 C 1148.7342,799.77915 1137.0692,816.79755 1131.9864,823.56875 C 1129.4968,826.88535 1126.084,831.00525 1124.4025,832.72425 L 1121.3451,835.84965 L 1121.8623,828.59915 C 1122.7617,815.98745 1122.3924,803.60975 1120.9353,797.53425 C 1120.2232,794.56545 1119.1328,789.34995 1118.5121,785.94455 C 1117.5143,780.47045 1117.2314,779.75325 1116.0711,779.75735 C 1114.9782,779.76095 1114.5847,780.47805 1113.718,784.04385 C 1112.1867,790.34465 1107.256,803.58755 1102.6332,813.81495 C 1100.4014,818.75265 1098.1005,824.61105 1097.52,826.83365 C 1096.3122,831.45875 1096.0627,842.73375 1096.9241,853.77155 C 1097.5847,862.23785 1097.4064,862.72685 1090.7713,870.64595 C 1079.2146,884.43905 1046.1049,913.77665 1042.1369,913.73975 C 1041.466,913.73345 1041.3477,913.56305 1041.8064,913.26335 C 1042.1991,913.00685 1042.8228,911.51085 1043.1924,909.93905 C 1043.5619,908.36715 1044.594,904.36635 1045.4858,901.04825 C 1049.4782,886.19385 1050.1165,880.07915 1049.2482,865.00895 C 1048.8902,858.79745 1048.692,857.86455 1047.73,857.86455 C 1046.9835,857.86455 1045.7527,859.56965 1043.9481,863.10375 C 1039.4081,871.99485 1036.2309,876.94815 1030.4078,884.21315 C 1022.7605,893.75415 1021.4499,896.21595 1019.4585,904.77935 C 1017.9232,911.38185 1017.8049,912.76985 1018.2055,919.48275 C 1018.8139,929.67545 1018.2899,931.37975 1013.3705,935.20745 C 1000.3418,945.34455 972.98542,962.47385 956.15368,971.03405 C 954.14532,972.05525 952.50213,973.15845 952.50213,973.48535 C 952.50213,973.81215 952.21635,974.07965 951.86706,974.07965 C 951.00882,974.07965 951.05521,972.33915 951.92109,972.05055 C 952.30011,971.92425 953.41005,969.76505 954.3877,967.25235 C 956.20071,962.59245 964.02585,947.87045 967.1298,943.27935 C 969.97693,939.06845 974.0217,930.54875 976.05456,924.48095 C 977.87365,919.05165 979.36551,908.03385 978.28174,908.03385 C 977.65495,908.03385 974.68845,910.96145 971.52502,914.70195 C 967.80928,919.09545 959.35302,926.74955 945.51651,938.24315 C 934.7986,947.14625 933.48379,948.46365 930.52836,953.26155 C 926.71306,959.45525 925.78863,961.71335 923.25772,971.02155 C 922.21416,974.85945 920.96371,978.76665 920.47876,979.70415 C 918.13174,984.24305 913.23193,987.16215 901.69773,990.89345 C 886.91813,995.67485 880.61693,996.97145 869.05984,997.60985 C 863.15915,997.93575 857.37221,998.46725 856.19995,998.79095 C 854.66431,999.21495 854.05772,999.17175 854.02976,998.63675 C 854.00845,998.22845 852.8155,997.03685 851.37872,995.98905 C 849.94207,994.94115 848.70199,993.79805 848.6231,993.44885 C 848.54416,993.09945 853.20796,988.38425 858.98696,982.97045 C 870.96158,971.75255 875.54626,966.52955 878.27594,960.99635 C 880.19824,957.09965 882.01774,949.10745 881.17451,948.26435 C 880.92557,948.01535 879.11506,949.57805 877.15123,951.73695 C 872.52074,956.82735 866.57545,961.31825 855.97372,967.73355 C 846.06376,973.73025 841.88156,976.75205 836.68903,981.66665 C 832.79693,985.35045 824.75837,995.39855 820.91278,1001.3869 C 815.50862,1009.8024 814.25336,1010.3209 773.4166,1021.0056 C 764.16065,1023.4275 753.05834,1026.427 748.74471,1027.6714 C 744.43109,1028.9158 738.57273,1030.2334 735.72606,1030.5993 C 730.62314,1031.2552 730.39865,1031.2239 719.75447,1028.3656 C 713.81664,1026.7711 706.24362,1024.7484 702.9255,1023.8704 C 685.88055,1019.3604 662.39327,1012.5406 660.86933,1011.6589 C 658.37921,1010.2185 655.87859,1006.4622 650.11308,995.50175 C 647.31437,990.18125 644.56667,985.31705 644.00706,984.69255 C 639.64965,979.82915 603.7789,955.66295 600.91747,955.66295 C 599.80272,955.66295 599.78656,957.52925 600.89343,958.45065 C 601.35915,958.83855 603.91131,964.87125 606.56488,971.85695 C 609.2184,978.84255 613.00804,988.79385 614.98623,993.97095 C 616.96443,999.14825 618.41671,1003.5502 618.21366,1003.7533 C 618.01054,1003.9563 610.0534,1001.7979 600.53098,998.95685 C 591.00867,996.11565 578.35939,992.44415 572.42163,990.79775 C 566.48386,989.15135 561.43341,987.52145 561.19839,987.17555 C 560.66368,986.38865 559.56324,978.02525 559.05744,970.90425 C 558.19377,958.74395 556.83802,953.61675 552.9867,947.94555 C 550.26108,943.93185 549.82455,943.53485 529.54593,926.62485 C 521.68192,920.06735 513.19159,912.93215 510.67855,910.76885 C 506.18307,906.89915 503.51818,905.06645 503.51818,905.84435 C 503.51818,906.06195 504.49508,908.00085 505.68912,910.15335 C 512.73621,922.85685 521.22808,950.09925 522.79516,965.03015 C 523.10556,967.98795 523.01109,968.36405 521.95779,968.36405 C 521.30476,968.36405 520.67526,968.12975 520.55884,967.84335 C 520.44243,967.55705 516.83497,965.49465 512.54238,963.26045 C 508.24972,961.02615 501.53401,956.99895 497.61859,954.31115 C 493.70309,951.62325 484.78406,945.69935 477.79846,941.14665 C 470.81284,936.59405 464.31808,932.26605 463.36568,931.52885 C 460.62332,929.40635 460.09675,926.21825 460.74367,915.65465 C 461.60651,901.56545 459.78277,890.38565 455.09759,881.04395 C 450.26678,871.41215 444.63163,864.31215 431.11918,850.83315 C 426.367,846.09275 422.10266,841.30595 421.64288,840.19595 C 420.55199,837.56225 420.04991,837.65055 419.15639,840.63285 C 417.20912,847.13225 419.32405,865.53785 425.12458,892.57325 C 426.33518,898.21565 427.85213,904.50275 428.49551,906.54435 C 429.13895,908.58605 429.85568,911.04245 430.08823,912.00285 C 430.86134,915.19605 428.7374,913.97865 422.99384,907.93635 C 419.95472,904.73925 414.89626,899.83965 411.75274,897.04835 C 408.6092,894.25715 401.32195,887.36295 395.55883,881.72775 C 389.79571,876.09275 382.157,868.97915 378.58394,865.91975 C 370.68339,859.15505 368.59782,856.01195 369.0294,851.52065 C 369.20366,849.70715 370.4036,846.17045 371.90955,843.03195 C 375.38516,835.78865 376.77974,829.39265 376.77574,820.71375 C 376.77136,810.95415 375.40732,806.66115 365.89458,786.46805 C 359.67624,773.26815 357.06204,765.91785 356.44794,759.90725 C 355.99058,755.43075 355.63551,754.83585 354.58958,756.79475 C 349.44983,766.42025 348.57548,770.03295 348.57237,781.65795 C 348.57066,788.22615 345.8664,825.85035 345.01988,831.08405 L 344.67783,833.19875 L 342.07862,829.49645 C 338.76153,824.77175 327.33486,806.64455 320.93027,795.94665 C 316.04219,787.78185 310.06854,778.40315 302.76623,767.42865 L 299.00277,761.77245 L 304.6512,751.23465 C 315.9588,730.13895 317.72235,724.83825 317.6645,712.11935 C 317.63376,705.36335 317.33675,703.34585 315.04718,694.33775 C 313.62669,688.74935 312.27275,682.67655 312.03842,680.84285 C 311.80409,679.00925 311.45837,677.50895 311.27013,677.50895 C 310.32033,677.50895 308.09454,681.03405 305.25546,687.03465 C 297.49032,703.44705 292.38257,716.73015 288.22253,731.32985 C 287.50098,733.86215 286.67349,735.93395 286.38359,735.93395 C 286.09376,735.93395 285.66242,734.71965 285.4251,733.23545 C 283.575,721.66535 277.78254,702.95085 272.9925,693.06765 C 268.75154,684.31755 266.18072,680.52195 263.31414,678.77855 C 260.7141,677.19755 260.31446,677.81195 260.30181,683.40995 C 260.28879,689.18435 261.66947,695.59755 265.38887,707.03895 C 272.00823,727.40145 272.39339,730.31015 268.92885,733.77465 C 267.7413,734.96235 266.22561,735.93395 265.56065,735.93395 C 264.89562,735.93395 263.36672,734.90235 262.1631,733.64145 C 258.72149,730.03655 248.32461,721.77455 242.45919,717.98355 C 227.73028,708.46415 210.97963,701.66705 209.80326,704.73275 C 209.56092,705.36435 209.99079,706.15095 210.96693,706.86195 C 212.66628,708.09995 224.73867,721.59195 227.31979,725.13795 C 228.20962,726.36045 230.28994,729.60705 231.94267,732.35255 C 239.31883,744.60555 247.29062,751.95285 259.97457,758.18865 C 265.5611,760.93515 269.29032,762.29735 273.94578,763.29185 C 281.83463,764.97725 284.15976,766.14855 288.73718,770.74335 C 295.67222,777.70445 311.73924,800.49765 322.39476,818.49105 C 325.39395,823.55565 329.37746,830.26865 331.24692,833.40885 C 334.51143,838.89225 335.71988,841.70855 335.08203,842.34635 C 334.75853,842.66985 322.01177,837.72815 320.89916,836.84775 C 319.77536,835.95875 301.67706,828.93725 295.06695,826.82595 C 285.39584,823.73705 267.91277,821.21945 267.91277,822.91575 C 267.91277,823.99205 269.1557,825.08625 273.04928,827.43755 C 277.2543,829.97675 283.76304,834.94835 287.59947,838.55135 C 299.0015,849.25965 308.9612,856.67025 317.14877,860.53755 C 328.95686,866.11535 336.49191,867.16755 348.24722,864.88055 L 354.59777,863.64515 L 357.13508,865.99395 C 358.5306,867.28595 364.2461,872.78415 369.83618,878.21225 C 386.28226,894.18185 411.83377,917.99375 415.28993,920.57145 L 418.48939,922.95765 L 403.05502,923.34345 C 384.6644,923.80325 380.43722,924.14465 367.93394,926.18075 C 352.76513,928.65065 352.4013,928.90965 361.74215,930.58875 C 371.45499,932.33475 380.61376,935.55275 390.87422,940.82445 C 396.07037,943.49435 401.74979,946.06025 403.49518,946.52685 C 413.30264,949.14845 440.38495,949.31405 450.17356,946.81235 C 453.23726,946.02935 456.41368,945.58815 457.51898,945.79185 C 461.12699,946.45725 486.14194,961.92855 497.36716,970.43715 C 503.1395,974.81265 503.84473,975.97475 503.08214,979.85505 L 502.53226,982.65285 L 498.10357,983.09855 C 495.66776,983.34365 488.95955,983.82605 483.19642,984.17045 C 473.65492,984.74075 467.96692,985.79955 465.7324,987.42165 C 465.38312,987.67535 463.64302,988.35695 461.86555,988.93635 C 460.08809,989.51595 457.08746,990.97535 455.19748,992.17955 C 453.30749,993.38355 451.2611,994.37615 450.64985,994.38515 C 449.92112,994.39575 449.5385,994.89995 449.5385,995.84915 C 449.5385,997.19055 450.01759,997.37825 456.04781,998.39865 C 459.62794,999.00465 466.98664,1000.5136 472.40048,1001.752 C 491.78864,1006.1872 493.79944,1006.4673 506.23875,1006.4673 L 517.80501,1006.4673 L 525.67485,1003.8447 C 530.43786,1002.2574 535.63578,999.97235 538.84161,998.05635 C 543.43936,995.30855 544.43568,994.94645 546.38965,995.31305 C 550.02657,995.99535 615.28786,1020.4563 615.28786,1021.1373 C 615.28786,1021.3695 613.07314,1021.7587 610.36621,1022.0023 C 605.04337,1022.4816 594.12883,1024.6494 592.48662,1025.5534 C 591.92928,1025.8605 589.33003,1026.9777 586.71039,1028.0364 C 581.18782,1030.2684 567.46534,1040.1562 567.13237,1042.1436 C 566.9277,1043.3652 567.28302,1043.382 585.23151,1042.9969 C 612.02094,1042.4221 615.85761,1042.2865 619.88818,1041.7713 C 622.54413,1041.4317 626.42887,1039.8955 634.17691,1036.1208 L 644.81798,1030.9365 L 652.33986,1030.7134 C 657.9396,1030.5474 663.05163,1030.9198 672.34412,1032.1714 C 679.20938,1033.0959 686.07569,1034.0005 687.60258,1034.1816 L 690.37871,1034.5107 L 680.93453,1038.6283 C 675.74021,1040.893 665.489,1045.339 658.15413,1048.5084 C 650.81922,1051.6776 640.1027,1056.3951 634.33956,1058.9916 C 628.57641,1061.5881 619.57705,1065.4269 614.34091,1067.5224 C 605.3347,1071.1266 601.74766,1073.2893 602.98902,1074.3667 C 603.87303,1075.1341 617.93263,1081.2604 620.36832,1081.9396 C 623.75635,1082.8843 627.621,1082.782 630.98326,1081.6587 z M 724.19979,927.05495 C 718.96064,926.81265 713.31659,926.57765 711.65751,926.53245 L 708.64097,926.45045 L 708.64097,809.91785 L 708.64097,693.38525 L 737.82096,693.38525 C 769.6334,693.38525 776.69552,693.88935 787.09303,696.90245 C 800.53471,700.79765 812.46878,708.61755 818.45851,717.45495 C 824.63599,726.56945 827.3758,736.82045 827.38612,750.85775 C 827.40233,772.83785 823.19233,787.28525 813.85268,797.30055 C 810.53102,800.86265 808.36355,802.52705 804.58202,804.41975 C 801.86758,805.77845 799.30564,807.00365 798.8888,807.14265 C 798.14333,807.39105 799.84427,811.08995 816.08086,844.52835 C 819.72725,852.03785 825.4081,863.87795 828.70508,870.83955 C 832.00195,877.80125 837.16256,888.66065 840.17297,894.97175 L 845.64664,906.44625 L 834.13999,909.41595 C 827.81134,911.04935 820.49003,912.96915 817.87046,913.68225 C 815.25083,914.39535 813.02839,914.75055 812.93167,914.47175 C 812.7194,913.85925 792.75238,879.21045 782.05654,860.89395 C 777.82846,853.65345 771.35971,842.50835 767.68155,836.12675 L 760.99386,824.52405 L 755.13921,824.34155 L 749.28452,824.15885 L 749.28452,875.93975 L 749.28452,927.72065 L 741.50507,927.60795 C 737.22638,927.54615 729.43907,927.29735 724.19979,927.05495 z M 768.97121,784.67255 C 774.49277,782.89535 778.16716,780.72135 781.67966,777.15395 C 790.11115,768.59045 794.12555,753.96965 790.59557,744.68195 C 787.67992,737.01105 780.05662,728.95545 771.93355,724.96155 C 765.97668,722.03285 762.48867,721.32765 753.96071,721.32765 L 747.37935,721.32765 L 747.37935,753.80175 L 747.37935,786.27585 L 756.74639,785.93415 C 762.23552,785.73395 767.29658,785.21165 768.97121,784.67255 z M 678.42951,922.82205 L 661.23677,919.97315 L 660.55188,917.02005 C 660.17525,915.39585 656.6028,900.06395 652.61318,882.94925 L 645.35922,851.83155 L 621.75025,851.66495 C 608.76543,851.57345 598.14139,851.58905 598.14139,851.69955 C 598.14139,852.15435 583.49097,894.95355 583.25431,895.19015 C 582.79224,895.65225 558.1329,882.55445 558.1329,881.84705 C 558.1329,881.46845 561.86868,869.13045 566.43463,854.42915 C 579.40081,812.68125 581.64537,805.61585 582.62289,803.47125 C 583.12458,802.37055 583.53504,801.22755 583.53498,800.93115 C 583.5348,800.43665 588.20659,785.32595 602.25561,740.37935 C 605.14873,731.12345 609.613,716.76315 612.1761,708.46785 L 616.83642,693.38525 L 629.06866,693.38525 L 641.30096,693.38525 L 641.7003,695.13165 C 641.91993,696.09215 642.91028,700.16445 643.90097,704.18115 C 644.8917,708.19785 646.99077,716.91405 648.5655,723.55035 C 651.52073,736.00415 657.55637,760.70505 662.53118,780.70535 C 664.09502,786.99245 670.12458,811.85475 675.93023,835.95515 C 681.73595,860.05545 688.45184,887.91855 690.85451,897.87305 C 695.95715,919.01385 697.20998,924.40455 697.20998,925.21985 C 697.20998,925.98095 698.44101,926.13795 678.42951,922.82205 z M 636.66774,813.88695 C 634.48747,805.23785 626.95366,779.91485 626.66269,780.25725 C 626.45325,780.50375 625.6215,782.41995 624.81435,784.51565 C 624.00726,786.61145 622.69477,789.75485 621.89776,791.50125 C 619.30518,797.18225 612.74764,813.66555 612.74764,814.50155 C 612.74764,815.13545 615.43636,815.31585 624.88773,815.31585 L 637.02788,815.31585 L 636.66774,813.88695 z M 858.51395,798.80625 L 858.51395,692.75025 L 875.97799,692.75025 L 893.44202,692.75025 L 893.43593,790.70745 L 893.42992,888.66465 L 877.81126,895.96785 C 869.22097,899.98455 861.36491,903.62895 860.35331,904.06655 L 858.51395,904.86225 L 858.51395,798.80625 z M 912.79935,871.76865 C 913.31707,865.92705 914.39881,847.83305 914.39881,845.01555 C 914.39881,842.83065 914.55021,842.62275 916.14522,842.61695 C 918.61843,842.60825 923.08159,840.36245 931.86285,834.70815 C 936.05421,832.00935 945.80743,826.68635 953.53665,822.87915 C 971.79301,813.88695 973.7295,811.97895 970.67206,805.99625 C 970.28379,805.23645 969.05997,803.52185 967.95252,802.18595 C 966.84495,800.85005 960.27213,792.75255 953.34622,784.19145 C 946.42026,775.63065 937.40583,765.19985 933.31416,761.01195 C 912.72144,739.93575 906.87942,727.46015 911.16258,713.70695 C 914.49843,702.99555 922.2361,696.36195 935.75047,692.62745 C 940.44972,691.32885 942.4026,691.22985 967.90219,690.99705 L 995.05077,690.74915 L 995.05077,707.62605 L 995.05077,724.50285 L 973.61772,724.51265 C 961.82949,724.51805 951.81724,724.75545 951.36832,725.04035 C 950.35984,725.68025 949.67074,729.60705 950.19814,731.70825 C 950.4133,732.56555 953.7067,737.00355 957.51678,741.57065 C 964.26858,749.66375 966.823,752.55765 981.50095,768.74295 C 988.78617,776.77625 997.38909,787.54835 1000.7419,792.83505 C 1006.7492,802.30755 1006.0236,814.96365 998.85906,825.67545 C 992.31054,835.46625 981.40555,843.60195 961.07533,853.86425 C 954.43902,857.21405 945.03706,862.07805 940.18203,864.67325 C 928.27846,871.03595 919.16124,875.01845 915.48309,875.46225 L 912.4395,875.82935 L 912.79935,871.76865 z M 507.32851,853.52945 C 504.35963,850.91525 497.4296,844.51055 491.92843,839.29685 L 481.92631,829.81725 L 481.92631,760.29315 L 481.92631,690.76905 L 508.43986,691.00115 C 534.81543,691.23185 534.98148,691.24155 540.35136,692.87385 C 550.70016,696.01955 556.56216,699.46575 562.78603,706.06335 C 570.42346,714.15945 574.01512,724.09665 574.00407,737.10125 C 573.97581,770.38245 562.27653,782.79965 526.06261,787.98365 C 521.17272,788.68365 516.24558,789.41675 515.11339,789.61275 L 513.05493,789.96915 L 512.89071,824.12585 L 512.72647,858.28245 L 507.32851,853.52945 z M 532.75662,756.31535 C 536.80185,754.79595 540.42786,751.40615 541.99038,747.68255 C 542.57668,746.28545 543.1986,742.69745 543.37254,739.70925 C 543.94308,729.90615 540.78933,723.25865 534.11548,720.19725 C 530.89872,718.72155 529.52803,718.51265 521.45848,718.26735 L 512.40895,717.99245 L 512.40895,738.17175 L 512.40895,758.35115 L 520.82341,757.99395 C 527.12617,757.72635 530.12094,757.30515 532.75662,756.31535 z M 1255.4235,639.72295 L 1255.4235,636.23025 L 1257.8049,636.20235 C 1260.6908,636.16855 1264.5915,634.84575 1266.2614,633.33445 C 1267.466,632.24425 1267.4895,630.22545 1267.4895,527.82465 L 1267.4895,423.42615 L 1265.8157,421.87495 C 1263.9761,420.17005 1260.6812,419.05045 1257.4874,419.04495 L 1255.4235,419.04145 L 1255.4235,415.54855 L 1255.4235,412.05585 L 1318.7702,412.06995 C 1379.9502,412.08355 1401.8727,412.52605 1412.5996,413.96395 C 1436.0891,417.11245 1451.689,423.33805 1464.9484,434.85535 C 1474.8244,443.43385 1481.1026,456.35565 1483.4594,472.95495 C 1484.5405,480.56905 1483.858,500.20155 1482.2538,507.63165 C 1479.7311,519.31635 1475.3097,527.95065 1468.0992,535.27425 C 1463.8409,539.59885 1455.6507,545.18445 1449.4337,548.00335 C 1447.1629,549.03295 1445.3049,550.00065 1445.3049,550.15365 C 1445.3049,550.30665 1447.7296,554.45515 1450.6932,559.37245 C 1453.6567,564.28975 1456.9751,569.91925 1458.0674,571.88245 C 1459.1597,573.84565 1461.5703,577.91035 1463.4242,580.91515 C 1468.8639,589.73175 1479.3364,607.12245 1480.8638,609.87535 C 1485.1537,617.60745 1492.8085,629.80495 1494.6504,631.84365 C 1497.1333,634.59205 1500.2636,636.23025 1503.032,636.23025 C 1504.9942,636.23025 1505,636.24075 1505,639.72295 L 1505,643.21585 L 1464.6741,643.21585 L 1424.3481,643.21585 L 1424.3481,639.80485 L 1424.3481,636.39385 L 1427.4427,635.98335 C 1429.4215,635.72085 1431.1388,635.01535 1432.2057,634.02675 C 1434.8272,631.59705 1434.4511,629.07075 1430.2874,621.14665 C 1428.3148,617.39235 1425.428,611.89165 1423.8722,608.92285 C 1419.5371,600.64945 1397.131,560.19795 1394.5007,555.89575 L 1392.1711,552.08545 L 1355.2325,551.92155 L 1318.2939,551.75775 L 1318.2939,591.99045 C 1318.2939,630.95755 1318.3325,632.25805 1319.522,633.33445 C 1321.1919,634.84575 1325.0926,636.16855 1327.9785,636.20235 L 1330.36,636.23025 L 1330.36,639.72295 L 1330.36,643.21585 L 1292.8917,643.21585 L 1255.4235,643.21585 L 1255.4235,639.72295 z M 1408.6639,504.38955 C 1418.4827,502.19955 1424.4718,497.81125 1428.0741,490.16755 C 1429.4889,487.16565 1429.7187,485.82685 1429.7089,480.64185 C 1429.6985,475.14225 1429.5224,474.26985 1427.7171,470.77515 C 1424.3959,464.34585 1418.4258,459.83575 1409.9112,457.32385 C 1406.648,456.36105 1401.3539,456.21975 1361.3189,456.02745 L 1316.3887,455.81175 L 1316.3887,480.61035 L 1316.3887,505.40895 L 1360.2409,505.40895 C 1398.1773,505.40895 1404.7097,505.27135 1408.6639,504.38955 z M 248.22606,636.87745 C 248.22606,633.93235 248.34653,633.69085 249.97245,633.37455 C 255.31587,632.33505 257.58125,631.56805 258.86324,630.36465 L 260.29211,629.02315 L 260.29211,524.80875 C 260.29211,432.07645 260.18453,420.44055 259.31583,419.20035 C 258.2892,417.73465 253.0775,415.86615 250.01595,415.86615 C 248.29148,415.86615 248.22606,415.75015 248.22606,412.69095 L 248.22606,409.51555 L 357.29675,409.53805 L 466.36745,409.56055 L 470.49532,410.96695 L 474.62317,412.37335 L 474.78866,439.83945 L 474.95416,467.30565 L 471.82265,467.30565 C 468.80131,467.30565 468.67589,467.23305 468.26024,465.24165 C 467.36303,460.94305 465.88844,457.19545 464.6551,456.07915 C 463.43267,454.97295 459.95188,454.92205 385.49009,454.92205 L 307.6037,454.92205 L 307.6037,467.62315 L 307.6037,480.32425 L 365.3937,480.32425 C 418.77383,480.32425 423.33544,480.24115 425.17201,479.23575 C 427.78253,477.80655 430.46291,474.56955 430.91735,472.29745 C 431.25749,470.59675 431.47831,470.48085 434.37656,470.48085 L 437.47246,470.48085 L 437.47246,502.86865 L 437.47246,535.25655 L 434.36786,535.25655 C 431.34019,535.25655 431.25325,535.20295 430.85836,533.09835 C 430.32644,530.26285 428.40026,527.89315 425.37167,526.34805 C 422.98159,525.12865 421.3909,525.09565 365.10146,525.09565 L 307.28618,525.09565 L 307.28618,559.07115 L 307.28618,593.04645 L 387.19243,593.04645 L 467.09866,593.04645 L 468.4582,591.59925 C 469.63711,590.34445 470.29375,588.23635 471.51877,581.77425 C 471.75653,580.51995 472.17613,580.34535 474.95276,580.34535 L 478.11598,580.34535 L 478.11598,606.96895 L 478.11598,633.59265 L 476.39587,635.63685 C 475.44977,636.76125 473.52079,638.20575 472.10924,638.84685 C 469.65109,639.96355 464.8702,640.01325 358.88439,640.02655 L 248.22606,640.04055 L 248.22606,636.87745 z M 687.80969,636.70645 C 687.99324,633.51945 688.08567,633.36375 689.90685,633.17535 C 693.31295,632.82265 696.37421,631.80805 698.07972,630.46645 L 699.7502,629.15245 L 699.7502,524.45775 L 699.7502,419.76295 L 698.00379,418.52175 C 696.02144,417.11275 692.02016,415.87495 689.43053,415.86975 C 687.75959,415.86625 687.68418,415.72945 687.68418,412.70305 C 687.68418,409.79205 687.82343,409.50145 689.43053,409.05955 C 690.3911,408.79555 701.03621,408.57585 713.08635,408.57115 L 734.99577,408.56305 L 739.75868,410.84715 C 746.13812,413.90635 748.56686,415.50415 762.81794,426.01725 C 769.52039,430.96165 782.14862,440.20665 790.88059,446.56155 C 799.6126,452.91625 808.18586,459.20835 809.93227,460.54375 C 811.67867,461.87925 821.39501,468.92005 831.52412,476.18995 C 849.85381,489.34575 849.94867,489.40345 851.62418,488.41795 C 853.21786,487.48065 877.88378,467.22135 885.67996,460.44615 C 887.67871,458.70915 895.88698,451.63245 903.92038,444.72015 C 917.42022,433.10425 927.00739,424.78665 930.91027,421.30455 C 935.99901,416.76415 945.70873,411.46485 952.01416,409.78635 C 955.76407,408.78805 968.60242,408.61845 988.91568,409.29865 L 1001.4014,409.71685 L 1001.4014,412.70305 L 1001.4014,415.68925 L 998.22648,416.06515 C 994.07692,416.55675 990.95799,418.07995 990.05841,420.05445 C 989.08462,422.19145 989.01681,627.46285 989.98918,629.27985 C 990.90603,630.99285 993.77842,632.33925 997.72009,632.90325 L 1001.0838,633.38455 L 1001.2758,636.71265 L 1001.4677,640.04055 L 963.29805,640.04055 L 925.12836,640.04055 L 925.3203,636.70645 L 925.51224,633.37245 L 928.71048,632.98215 C 933.09748,632.44665 934.29865,631.99825 935.89278,630.30135 L 937.26603,628.83975 L 937.1046,553.53445 L 936.94324,478.22925 L 930.27519,483.61765 C 926.6077,486.58125 921.05469,491.19645 917.93505,493.87345 C 911.54802,499.35435 896.57209,511.85925 881.7596,524.07975 C 876.29804,528.58555 871.08553,532.96165 870.17603,533.80455 C 867.97018,535.84885 855.48889,546.27885 849.9766,550.68415 C 846.29236,553.62855 845.39278,554.08575 844.50676,553.46425 C 843.92351,553.05525 838.37971,548.57685 832.18723,543.51225 C 825.99469,538.44765 818.59699,532.44895 815.74771,530.18155 C 810.44009,525.95815 774.64771,497.06155 759.65034,484.89195 C 755.04777,481.15725 751.11831,478.10155 750.91832,478.10155 C 750.27068,478.10155 750.51197,627.14475 751.1624,628.85535 C 751.93154,630.87835 754.63956,632.28795 758.9394,632.90325 L 762.30311,633.38455 L 762.49511,636.71265 L 762.68699,640.04055 L 725.15243,640.04055 L 687.61781,640.04055 L 687.80969,636.70645 z M 1015.4981,636.71265 L 1015.6901,633.38455 L 1019.0539,632.90325 C 1022.9955,632.33925 1025.868,630.99285 1026.7848,629.27985 C 1027.6299,627.70065 1027.7002,422.35215 1026.8563,420.13275 C 1026.133,418.23025 1022.7199,416.55945 1018.5475,416.06515 L 1015.3726,415.68925 L 1015.3726,412.60245 L 1015.3726,409.51555 L 1123.8082,409.52325 C 1236.2546,409.53105 1235.4318,409.51345 1240.0527,411.98655 L 1241.4522,412.73565 L 1241.4522,440.02065 L 1241.4522,467.30565 L 1238.3057,467.30565 C 1235.1641,467.30565 1235.1586,467.30185 1234.7602,464.92425 C 1234.0965,460.96455 1232.5526,456.65785 1231.4766,455.76475 C 1230.6476,455.07675 1216.1485,454.89115 1152.447,454.75345 L 1074.4327,454.58485 L 1074.4327,467.62945 L 1074.4327,480.67425 L 1132.0639,480.49915 C 1188.8578,480.32685 1189.7321,480.30525 1192.2355,479.01445 C 1194.1136,478.04605 1195.2723,476.76375 1196.6808,474.09465 L 1198.586,470.48455 L 1201.6025,470.48275 L 1204.619,470.48085 L 1204.619,502.86865 L 1204.619,535.25655 L 1201.5714,535.25655 C 1198.6646,535.25655 1198.4864,535.15365 1197.7198,533.03365 C 1196.622,529.99765 1193.9853,527.00385 1191.4917,525.96175 C 1189.7926,525.25195 1179.0466,525.09565 1131.9256,525.09565 L 1074.4327,525.09565 L 1074.4327,559.07115 L 1074.4327,593.04645 L 1154.0868,593.04645 C 1228.3974,593.04645 1233.8137,592.97365 1234.827,591.96025 C 1236.362,590.42535 1237.4988,587.44465 1238.0052,583.62715 L 1238.4406,580.34535 L 1241.534,580.34535 L 1244.6275,580.34535 L 1244.6275,607.07835 C 1244.6275,637.39165 1244.8519,636.04875 1239.3421,638.71605 L 1236.6058,640.04055 L 1125.956,640.04055 L 1015.3063,640.04055 L 1015.4981,636.71265 z M 508.59862,635.71695 L 508.59862,632.64415 L 512.56137,631.90725 C 517.25049,631.03515 519.4669,629.56165 520.16968,626.84935 C 520.45233,625.75905 520.60779,578.60005 520.51528,522.05175 C 520.37733,437.67055 520.19581,419.05425 519.50328,418.21975 C 518.54143,417.06085 514.49314,415.49625 510.98008,414.92535 C 508.60065,414.53875 508.59862,414.53575 508.59862,411.39205 L 508.59862,408.24555 L 549.24213,408.24555 L 589.88569,408.24555 L 589.88569,411.39205 C 589.88569,414.53235 589.881,414.53925 587.50422,414.94485 C 582.6175,415.77885 580.32982,416.58645 579.09234,417.91485 C 577.83153,419.26815 577.81959,420.09975 577.81959,506.48125 L 577.81959,593.68155 L 621.03223,593.68155 L 664.24485,593.68155 L 665.73671,592.18975 C 666.65912,591.26725 667.52232,589.26775 667.99841,586.95055 C 668.42196,584.88945 668.87175,582.84595 668.99808,582.40935 C 669.14253,581.90985 670.41261,581.61555 672.42294,581.61555 L 675.61811,581.61555 L 675.61811,607.04925 C 675.61811,635.39965 675.65744,635.12065 671.35952,637.25605 C 669.04302,638.40675 665.85614,638.45935 588.77436,638.62135 L 508.59862,638.78955 L 508.59862,635.71695 z M 97.71801,636.83025 C 61.5675,636.60055 25.917115,636.37165 18.494914,636.32145 L 5,636.23025 L 5,607.33515 L 5,578.44015 L 8.1752426,578.44015 L 11.350543,578.44015 L 11.350543,580.86655 C 11.350543,584.18805 14.322612,589.84245 17.001207,591.61695 C 19.15657,593.04495 19.190104,593.04645 46.902496,593.04645 C 62.161467,593.04645 98.74693,592.85605 128.20364,592.62355 L 181.76125,592.20045 L 183.69552,590.47225 C 185.31363,589.02655 185.49843,588.58575 184.82616,587.77575 C 184.38417,587.24325 182.62728,586.47265 180.92191,586.06365 C 179.10139,585.62695 173.99116,582.98205 168.54456,579.65745 C 163.4424,576.54295 159.09189,573.99495 158.87673,573.99495 C 158.66164,573.99495 157.60135,573.32925 156.52056,572.51575 C 154.72386,571.16335 126.9101,554.15385 121.80655,551.28645 C 119.13601,549.78585 95.78402,535.54765 90.097346,531.95265 C 87.827033,530.51745 83.683297,528.00495 80.889056,526.36945 C 76.725888,523.93275 39.631176,501.49705 27.858645,494.29545 C 24.550654,492.27195 22.59922,488.97115 19.583716,480.29925 C 13.755015,463.53735 13.807315,448.52355 19.737373,436.18795 C 21.887349,431.71555 23.299507,429.84045 27.972916,425.25255 C 34.763799,418.58565 39.939434,414.80205 46.652411,411.59685 L 51.67652,409.19805 L 130.10582,409.19805 L 208.53511,409.19805 L 212.11441,410.64555 L 215.69371,412.09305 L 216.08173,430.96735 C 216.29517,441.34815 216.61854,452.91375 216.80029,456.66835 L 217.13091,463.49535 L 213.92445,463.49535 C 211.89723,463.49535 210.63892,463.20325 210.50308,462.70155 C 210.3849,462.26485 209.96704,460.20135 209.57451,458.11585 C 209.09466,455.56605 208.33476,453.79795 207.25465,452.71785 L 205.64841,451.11175 L 140.09346,451.11175 C 69.558717,451.11175 71.885628,451.00585 67.854292,454.39795 C 65.668494,456.23725 65.391165,458.61175 66.992148,461.78035 C 69.084327,465.92145 67.426585,464.73745 97.400479,483.49675 C 105.08464,488.30605 113.65789,493.73245 116.45214,495.55575 C 123.72066,500.29845 157.42767,521.36725 159.31836,522.34965 C 160.19155,522.80335 164.90683,525.72645 169.79676,528.84535 C 182.83621,537.16245 196.03354,545.43465 217.10836,558.50055 C 227.41212,564.88855 236.44959,570.54565 237.19159,571.07185 C 237.93366,571.59825 239.26848,573.84645 240.15787,576.06825 C 245.23818,588.75865 244.92491,604.55155 239.30461,619.08375 C 236.11536,627.32995 230.93509,631.63455 219.13444,635.84445 L 214.49244,637.50045 L 188.96932,637.37415 C 174.93162,637.30465 133.86852,637.06005 97.71801,636.83025 z M 1199.0683,400.64875 C 1177.6163,393.22045 1167.0634,387.39225 1157.6079,377.75095 C 1156.3761,376.49485 1152.8269,372.05425 1149.7207,367.88295 C 1142.6563,358.39605 1140.2865,355.74925 1133.3213,349.56675 C 1126.0471,343.10985 1122.0618,338.22135 1122.0618,335.75535 C 1122.0618,334.15065 1122.4603,333.69685 1124.7608,332.68185 C 1129.3797,330.64395 1135.7923,329.84275 1147.4641,329.84505 C 1157.0433,329.84715 1159.311,330.04695 1163.8903,331.29295 C 1166.8123,332.08815 1169.2822,332.65255 1169.3789,332.54755 C 1169.4757,332.44245 1167.8261,328.80955 1165.7133,324.47445 C 1162.6098,318.10645 1161.0409,315.71775 1157.5463,312.03885 C 1153.0811,307.33815 1151.595,306.55315 1145.5589,305.70795 C 1137.5476,304.58595 1127.2291,301.62115 1121.7551,298.86855 C 1117.5967,296.77735 1115.0449,294.93675 1108.7257,289.47055 C 1103.8457,285.24925 1100.1544,282.47035 1090.3091,275.60635 C 1080.4194,268.71135 1079.9667,268.34685 1073.7977,262.30735 L 1068.3997,257.02305 L 1070.3049,255.46195 C 1078.1044,249.07185 1095.7221,246.02815 1110.2264,248.56515 C 1113.3222,249.10665 1116.0064,249.39825 1116.1915,249.21315 C 1116.7375,248.66725 1104.4748,233.75155 1098.5914,227.80525 C 1095.5735,224.75505 1092.0399,221.83225 1090.6266,221.21715 C 1087.599,219.89935 1080.0499,219.68845 1065.8595,220.52485 C 1057.794,221.00025 1055.5077,220.91875 1050.9456,219.99325 C 1039.1022,217.59055 1030.8047,213.09415 1015.6901,200.88853 C 1010.4509,196.65763 1003.0208,191.32813 999.17865,189.04513 C 995.33659,186.76198 991.08153,184.13728 989.72299,183.21253 C 988.36447,182.28763 986.72122,181.53088 986.07144,181.53088 C 985.31329,181.53088 984.8899,181.07578 984.8899,180.26068 C 984.8899,179.56213 985.13334,178.99063 985.4308,178.99063 C 985.72833,178.99063 987.8892,177.73123 990.23262,176.19208 C 995.72719,172.58323 1001.9002,170.32213 1009.5611,169.11238 C 1012.9321,168.58003 1017.2791,167.86993 1019.2212,167.53453 C 1021.1632,167.19913 1023.8509,166.92463 1025.1939,166.92463 C 1027.6119,166.92463 1027.6242,166.91203 1026.4621,165.62803 C 1025.8167,164.91493 1023.129,162.70018 1020.4894,160.70638 C 1017.8498,158.71258 1015.5473,156.92893 1015.3726,156.74293 C 1014.5654,155.88283 1008.3568,152.23753 1005.2117,150.77728 C 999.75331,148.24288 997.04401,148.52878 990.60393,152.31928 C 987.63592,154.06633 983.73456,155.92378 981.93441,156.44713 C 974.05969,158.73673 962.93704,156.92128 948.55993,150.99988 C 923.53347,140.69233 923.56921,140.70073 905.03178,140.79268 C 891.98752,140.85718 891.5368,140.81758 891.5368,139.60333 C 891.5368,138.91243 891.78938,138.34708 892.09814,138.34708 C 892.40684,138.34708 893.26982,136.84678 894.01598,135.01303 C 897.19054,127.21048 906.22611,118.42363 914.69749,114.90088 C 917.15281,113.87983 921.4479,112.60498 924.24216,112.06798 C 927.03642,111.53113 929.89416,110.98003 930.59271,110.84353 C 931.43188,110.67943 928.73833,109.07713 922.65451,106.12093 C 906.9012,98.466428 905.06977,98.431328 897.1036,105.62983 C 891.96956,110.26918 884.0257,114.59773 878.31289,115.86883 C 873.0947,117.02968 870.62554,116.88298 859.46653,114.74848 C 851.61712,113.24698 842.4572,113.38588 831.20662,115.17673 C 827.88844,115.70488 821.85731,116.31763 817.80415,116.53843 L 810.43477,116.93983 L 810.98765,112.87843 C 811.71017,107.57128 811.86088,107.09398 814.53188,101.65468 C 817.36628,95.882828 822.68918,90.012878 828.88381,85.827878 L 833.64868,82.608878 L 831.06883,82.196378 C 827.72585,81.661778 817.01675,77.929028 812.32654,75.663578 C 807.57563,73.368728 802.34384,68.218328 801.33149,64.839428 C 799.64596,59.213378 802.38937,53.027228 808.03823,49.716878 C 813.07403,46.765628 819.08801,45.500528 828.34888,45.444278 C 834.37862,45.407678 837.33226,45.662678 839.30356,46.389878 C 840.788,46.937678 842.00255,47.298578 842.00255,47.192078 C 842.00255,47.085428 840.47084,43.189478 838.59875,38.534228 C 833.30771,25.377128 831.84389,20.190428 830.96741,11.494928 L 830.63138,8.1608777 L 833.08879,8.1608777 C 834.4403,8.1608777 835.65518,7.8338777 835.78834,7.4342777 C 836.18641,6.2401277 840.41866,7.9432277 847.15228,12.007028 C 853.9558,16.112828 854.99293,16.592678 865.81706,20.642678 C 881.1119,26.365478 889.23178,31.014278 894.73255,37.197278 C 896.44982,39.127628 899.37625,44.221928 902.77801,51.202778 C 906.08601,57.991178 908.95456,63.004478 910.30168,64.351628 C 911.72322,65.773178 917.49633,68.980028 926.93379,73.590578 C 934.88397,77.474528 942.11353,81.039728 942.99951,81.513128 C 943.88548,81.986528 946.13443,82.974728 947.99709,83.708828 C 950.94088,84.869228 951.33148,84.907628 950.98414,84.002528 C 949.93363,81.264728 947.4618,70.143878 946.84365,65.373578 C 946.10929,59.706878 946.03117,44.261378 946.70209,37.373378 C 947.03223,33.984128 947.30704,33.245528 948.2382,33.245528 C 949.05756,33.245528 950.01009,34.743128 951.67135,38.643428 C 955.37376,47.336078 960.09952,54.060578 967.96636,61.830278 C 971.86048,65.676278 978.04723,71.072228 981.71467,73.821278 C 985.3821,76.570178 989.52585,79.757528 990.92295,80.904128 C 992.32005,82.050728 996.11739,85.030928 999.36138,87.526928 C 1002.6054,90.022928 1006.065,93.177128 1007.0496,94.536128 C 1008.1061,95.994728 1009.6921,99.946928 1010.9204,104.18218 C 1013.5542,113.26408 1014.2234,114.57763 1017.8578,117.80173 C 1022.8785,122.25553 1054.3341,146.60278 1055.0675,146.60278 C 1055.24,146.60278 1055.3911,142.24483 1055.4032,136.91818 C 1055.427,126.53098 1056.1781,121.02883 1058.8059,111.99238 C 1060.5882,105.86338 1063.6003,98.995628 1064.5121,98.981978 C 1064.8188,98.977478 1066.6239,99.862928 1068.5234,100.94953 C 1071.9035,102.88348 1072.0697,103.11673 1076.352,111.93313 C 1078.7584,116.88733 1081.3878,121.92808 1082.1953,123.13468 C 1083.0028,124.34128 1084.8915,127.41013 1086.3924,129.95428 C 1087.8933,132.49828 1092.7218,139.35688 1097.1224,145.19533 C 1102.3511,152.13253 1106.1218,157.87588 1108.005,161.77108 L 1110.8866,167.73148 L 1111.3117,181.45798 C 1111.6219,191.47618 1111.9946,195.78508 1112.6912,197.40718 C 1113.8299,200.05903 1117.2604,204.01153 1127.8264,214.84525 L 1135.7156,222.93435 L 1136.548,216.99765 C 1137.7391,208.50268 1140.9389,199.55848 1145.8167,191.08918 C 1148.1199,187.09033 1150.0043,183.44668 1150.0043,182.99218 C 1150.0043,182.53768 1150.5758,182.16598 1151.2744,182.16598 C 1151.973,182.16598 1152.5445,182.56648 1152.5445,183.05593 C 1152.5445,184.48543 1158.1233,197.98333 1160.5757,202.48768 C 1161.8118,204.75793 1165.3167,210.33058 1168.3643,214.87125 C 1178.5898,230.10645 1180.9945,234.93385 1183.0504,244.35385 C 1185.2997,254.65965 1185.8076,263.58475 1184.6739,272.88355 C 1182.8644,287.72545 1182.8048,287.37285 1189.4656,301.23075 C 1192.6574,307.87155 1196.0781,314.33535 1197.0672,315.59485 C 1198.0563,316.85425 1199.1528,318.64045 1199.5039,319.56385 C 1200.4644,322.09065 1201.1042,321.61165 1201.9118,317.76165 C 1203.3132,311.08045 1209.8694,298.95385 1216.4436,290.88355 C 1217.9775,289.00035 1219.4047,286.77345 1219.6153,285.93475 C 1220.1519,283.79665 1221.6309,284.06685 1224.8452,286.88995 C 1227.0517,288.82795 1227.7717,290.00425 1228.4245,292.73715 C 1228.874,294.61875 1230.5752,300.58785 1232.205,306.00165 C 1237.1734,322.50555 1237.5556,323.90485 1238.7105,329.81625 C 1240.402,338.47345 1240.233,355.62525 1238.3706,364.30935 C 1237.5981,367.91215 1236.7109,371.34145 1236.3991,371.93005 C 1236.0875,372.51835 1234.7749,376.14345 1233.4825,379.98555 C 1227.4059,398.04915 1222.3299,403.81215 1212.5155,403.79035 C 1208.9011,403.78225 1206.4909,403.21915 1199.0683,400.64875 z M 1216.2893,392.93205 C 1220.1724,388.15485 1222.4057,384.00685 1224.7984,377.12785 C 1227.9845,367.96795 1228.9882,361.05105 1228.9916,348.23275 C 1228.9949,335.42535 1228.5209,331.78665 1224.6533,314.92845 C 1222.2314,304.37185 1221.8075,303.12265 1220.5847,302.94055 C 1219.7139,302.81085 1219.0707,303.15585 1218.8082,303.89325 C 1218.5821,304.52895 1216.8407,308.47825 1214.9387,312.66975 C 1209.6698,324.28065 1209.015,327.53335 1209.3945,340.21035 C 1209.5683,346.01985 1209.5414,350.41575 1209.3346,349.97925 C 1209.1278,349.54255 1208.6252,349.17565 1208.2177,349.16365 C 1207.8102,349.15165 1205.8127,346.65115 1203.7786,343.60695 C 1201.7447,340.56265 1198.0838,335.21415 1195.6434,331.72135 C 1190.0118,323.66085 1183.6092,312.89755 1178.6319,303.12355 C 1173.831,293.69605 1173.278,290.21125 1174.2503,275.51895 C 1174.6086,270.10515 1174.7687,261.67485 1174.606,256.78485 C 1174.3502,249.09675 1174.073,247.24975 1172.5559,243.13125 C 1169.9747,236.12305 1166.5423,230.05315 1158.7303,218.68155 C 1154.8912,213.09315 1151.451,207.87028 1151.0853,207.07543 C 1150.7197,206.28043 1150.114,205.73218 1149.7394,205.85713 C 1148.1489,206.38723 1147.3157,213.25855 1147.0102,228.36615 C 1146.6649,245.43855 1146.9855,244.42015 1142.3613,243.13555 C 1137.4442,241.76935 1105.3584,207.60088 1103.5949,201.85258 C 1103.2199,200.63008 1102.6924,193.48573 1102.4229,185.97628 C 1102.0605,175.88503 1101.6729,171.71443 1100.9374,169.99183 C 1099.9495,167.67853 1096.1617,162.02518 1087.2649,149.58613 C 1078.4068,137.20078 1070.0452,123.22993 1069.0011,119.07013 C 1068.5057,117.09598 1068.3358,117.04588 1066.9255,118.45663 C 1065.9833,119.39908 1065.8636,121.33513 1065.8956,135.12673 C 1065.9276,148.94368 1066.0837,151.27618 1067.2592,155.49358 C 1067.9893,158.11318 1068.3304,160.35178 1068.017,160.46818 C 1067.7035,160.58458 1067.4471,161.26093 1067.4471,161.97103 C 1067.4471,163.15873 1067.1284,163.24198 1063.4713,163.00903 C 1059.3387,162.74593 1054.9449,160.61443 1049.7007,156.32878 C 1046.7691,153.93298 1037.7557,146.39488 1031.8811,141.42583 C 1029.2599,139.20868 1022.8299,134.40163 1017.5923,130.74373 C 1012.3547,127.08583 1007.3118,123.31843 1006.3859,122.37163 C 1005.1632,121.12153 1004.3376,119.09638 1003.3694,114.97273 C 1002.6363,111.84988 1002.0365,108.98383 1002.0365,108.60358 C 1002.0365,108.22318 1001.4375,106.31143 1000.7055,104.35498 C 999.47043,101.05393 998.70429,100.24348 990.06837,93.102278 C 984.94986,88.869878 978.47589,83.502128 975.68163,81.173978 C 972.88737,78.845828 968.0292,75.010328 964.88571,72.650828 C 961.74214,70.291328 958.81588,67.910828 958.38295,67.360928 C 956.93968,65.527928 956.87065,67.025828 958.16478,72.094478 C 960.9844,83.137928 964.91617,92.944178 966.81669,93.673478 C 967.85221,94.070828 968.10195,96.433478 967.10836,96.433478 C 966.75912,96.433478 966.47335,97.004978 966.47335,97.703528 C 966.47335,98.849528 966.04992,98.973728 962.1442,98.973728 C 957.93547,98.973728 957.33973,98.752478 940.71111,91.013978 C 931.30393,86.636078 921.89248,82.241828 919.79677,81.248828 C 917.70112,80.255978 914.84332,79.083578 913.44622,78.643478 C 904.37128,75.785378 901.90246,73.013078 895.70939,58.726328 C 888.22876,41.469428 883.29854,37.441028 857.56136,27.556328 C 852.32216,25.544228 846.96392,23.351828 845.65411,22.684478 C 843.53222,21.603428 843.27263,21.583478 843.27263,22.501778 C 843.27263,25.619078 849.63274,41.063678 851.489,42.453878 C 851.72213,42.628478 852.56176,43.839128 853.35478,45.144278 C 854.14774,46.449278 856.5961,49.164128 858.79555,51.177278 C 860.99492,53.190278 863.29172,55.621178 863.89952,56.579228 C 865.34729,58.861178 864.75293,61.134578 862.46026,62.084228 C 860.35036,62.958128 854.3666,61.726028 842.21227,57.914828 C 835.28249,55.741778 834.08254,55.555628 826.75006,55.515728 C 819.43088,55.475828 818.54984,55.600928 815.63656,57.093278 C 813.02839,58.429328 812.43914,59.048978 812.28281,60.619928 C 812.03545,63.105128 813.74102,65.229578 817.72387,67.397378 C 823.84738,70.730228 838.99283,73.846028 852.95167,74.644778 L 859.78409,75.035678 L 859.78409,78.748928 C 859.78409,81.469928 859.48042,82.765928 858.64768,83.598578 C 858.02269,84.223628 854.37905,85.837478 850.55074,87.184928 C 841.64177,90.320528 835.32019,93.202628 830.86484,96.159878 C 827.47027,98.413028 824.221,102.19063 824.221,103.88398 C 824.221,104.94988 839.23018,105.01108 841.80244,103.95568 C 844.81337,102.72043 854.34982,103.15078 862.32431,104.88178 C 876.0538,107.86213 875.27537,107.91748 882.55562,103.44358 C 886.04107,101.30173 891.1283,97.553078 893.86042,95.113328 C 900.22712,89.428178 902.01963,88.848728 908.55372,90.364028 C 921.7387,93.421778 945.09,104.17003 951.07323,109.93528 C 953.19946,111.98398 953.45736,113.14723 952.74283,117.46708 L 952.36254,119.76643 L 944.33538,120.19933 C 931.01092,120.91798 925.07866,122.08948 918.31135,125.33863 C 915.04941,126.90478 911.95345,128.18623 911.43154,128.18623 C 910.90965,128.18623 910.60123,128.54353 910.74621,128.98003 C 910.89876,129.43948 912.78828,129.97273 915.23236,130.24603 C 925.65379,131.41108 937.3686,134.88523 952.24126,141.22123 C 969.69591,148.65733 973.48642,148.84573 986.0416,142.90153 C 996.12735,138.12658 998.49603,137.74258 1004.3273,139.93738 C 1013.0722,143.22898 1032.397,155.69518 1043.4738,165.19018 C 1047.375,168.53443 1047.6192,169.25038 1046.7178,174.70408 L 1046.3241,177.08548 L 1033.2298,177.11248 C 1021.2386,177.13708 1019.531,177.28423 1012.9603,178.85878 L 1005.7852,180.57823 L 1013.5954,186.42088 C 1017.891,189.63433 1022.5487,193.28008 1023.9458,194.52253 C 1028.7083,198.75793 1038.9594,205.23178 1044.195,207.31048 C 1051.6209,210.25873 1058.8131,211.59655 1064.7951,211.14238 C 1084.2699,209.66353 1092.8244,210.08203 1097.0968,212.72245 C 1098.8888,213.82995 1108.0508,223.74495 1114.0466,231.06505 C 1115.0478,232.28755 1117.7322,235.28365 1120.0117,237.72285 C 1128.0273,246.30045 1134.897,255.48225 1135.5064,258.43275 C 1135.6214,258.98985 1134.6776,260.59645 1133.409,262.00315 L 1131.1026,264.56085 L 1122.7209,261.80295 C 1111.1006,257.97925 1108.0793,257.51835 1097.9298,258.01995 C 1093.2145,258.25305 1088.7135,258.60165 1087.9276,258.79455 C 1085.838,259.30735 1086.1413,261.24565 1088.4617,262.20675 C 1092.2529,263.77705 1097.7034,267.77575 1107.4556,276.14095 C 1112.8694,280.78485 1118.8356,285.57735 1120.7136,286.79095 C 1128.4222,291.77205 1136.5644,294.52645 1147.7102,295.92405 C 1155.7589,296.93325 1159.6493,298.48725 1162.3158,301.75785 C 1170.0404,311.23315 1183.734,336.25975 1185.5038,344.13685 C 1186.0529,346.58035 1185.9924,346.75695 1184.3971,347.37325 C 1180.734,348.78825 1175.5019,347.75725 1168.4209,344.22525 C 1159.9947,340.02235 1154.537,338.80935 1145.716,339.17865 C 1142.1349,339.32865 1139.0475,339.60865 1138.8552,339.80095 C 1138.6628,339.99345 1142.1924,343.82685 1146.6988,348.31965 C 1152.2197,353.82405 1156.1899,358.45635 1158.8707,362.52145 C 1163.8927,370.13665 1167.4104,373.79595 1173.8456,378.09945 C 1181.1495,382.98355 1188.0798,386.28885 1197.1549,389.21605 C 1202.8704,391.05955 1206.0133,392.47165 1208.4535,394.29225 C 1210.3128,395.67945 1212.1396,396.79825 1212.5131,396.77845 C 1212.8867,396.75865 1214.586,395.02765 1216.2893,392.93205 z M 256.45364,392.84545 C 251.27465,389.76025 250.13123,387.08655 250.13123,378.06105 C 250.13123,369.30675 249.31347,366.42085 244.63368,358.66005 C 233.7717,340.64665 233.64075,335.91135 243.18062,306.10515 C 248.49164,289.51125 249.01772,286.32225 248.48001,273.98055 L 248.03948,263.86885 L 252.4194,266.27065 C 264.77795,273.04785 273.38109,285.67095 277.45428,303.00385 C 278.25699,306.41965 279.12879,309.13455 279.39158,309.03685 C 279.65442,308.93925 285.2523,300.71475 291.83141,290.76025 L 303.79337,272.66125 L 303.75851,266.62825 C 303.73932,263.31015 303.48378,256.58685 303.19071,251.68785 C 302.68202,243.18525 302.73486,242.48125 304.35362,236.19745 C 305.87547,230.28985 310.56764,219.69025 312.61676,217.53115 C 315.77465,214.20355 329.24396,194.01163 331.64574,189.00478 C 333.8645,184.37938 335.07936,182.58238 336.47546,181.86043 C 342.59244,178.69723 345.52074,183.58453 346.31387,198.28063 C 346.53773,202.42843 347.07302,206.68513 347.50338,207.73978 L 348.28583,209.65738 L 353.73188,204.50233 C 361.31018,197.32888 374.75551,182.47198 375.72269,180.20308 C 376.78457,177.71173 376.92593,172.56613 376.27049,160.25653 C 375.76117,150.69073 375.81091,149.85388 377.11912,145.96783 C 380.79977,135.03433 389.33744,125.72023 409.84756,110.26258 C 414.73748,106.57738 419.88145,102.36328 421.27855,100.89793 C 424.2809,97.749278 426.58787,96.425978 429.02641,96.453728 C 433.10728,96.500078 434.93224,100.19863 434.93224,108.42328 C 434.93224,117.45508 431.60341,131.50363 428.54074,135.39718 C 426.99424,137.36323 427.0004,137.71213 428.58169,137.71213 C 429.28025,137.71213 429.8518,137.45458 429.8518,137.13973 C 429.8518,136.82503 434.9243,133.65118 441.12403,130.08688 C 453.24881,123.11623 473.18789,110.10373 475.38079,107.73058 C 477.15838,105.80683 478.10563,102.12463 478.12348,97.068578 C 478.16087,86.456228 481.61329,78.200828 489.16709,70.660628 C 495.30184,64.537028 500.43581,61.007528 513.9966,53.590778 C 524.93658,47.607278 531.58783,43.737578 532.09566,43.060628 C 532.27027,42.827978 534.41359,41.271278 536.85861,39.601478 C 541.37343,36.518078 546.04632,34.198178 547.74228,34.198178 C 548.25885,34.198178 549.44328,35.832428 550.38861,37.849628 C 551.84965,40.967378 552.09991,42.336878 552.09991,47.216678 C 552.09991,52.607678 551.952,53.238728 549.4951,58.330178 C 548.06245,61.299128 544.99042,66.521528 542.66824,69.935678 C 538.66212,75.825728 537.53433,78.651878 539.18998,78.651878 C 539.59911,78.651878 540.38494,78.257828 540.93639,77.776028 C 541.48788,77.294228 550.2265,74.675978 560.35563,71.957678 C 570.48474,69.239378 579.10705,66.759428 579.51637,66.446528 C 579.92566,66.133628 580.45719,64.679678 580.69749,63.215378 C 581.44324,58.671428 584.7973,49.274828 586.8615,45.946628 C 592.38,37.048778 600.64768,31.465778 619.09824,24.177428 C 633.22764,18.596078 639.85266,14.698328 645.64772,8.5568777 C 647.50127,6.5926277 649.5017,4.9922778 650.0931,5.0003778 C 650.68461,5.0086278 652.56336,5.7944778 654.26819,6.7468277 C 662.53361,11.364128 662.33003,21.238778 653.59998,39.166628 C 651.67397,43.121828 650.19608,46.437428 650.31579,46.534328 C 650.92532,47.028128 671.25272,44.210528 673.71296,43.291178 C 685.54845,38.868878 698.09907,48.173378 695.91411,59.750378 C 695.1749,63.667178 693.90678,66.046328 691.4616,68.103728 C 685.7075,72.945578 676.5291,76.292378 663.39335,78.338528 C 659.81493,78.895928 660.30185,80.456078 665.0234,83.560178 C 669.85857,86.739128 676.8575,93.966878 680.56391,99.608828 C 683.01611,103.34143 686.35461,111.94588 685.63128,112.66918 C 685.00014,113.30038 646.58598,114.32383 633.70449,114.05263 C 622.09365,113.80828 619.52776,113.57458 616.55511,112.49038 C 609.81205,110.03098 605.36268,107.30983 599.39688,101.99638 C 596.08675,99.048278 592.75432,96.304778 591.99136,95.899778 C 589.85766,94.766978 583.27944,95.022128 579.20239,96.395528 C 577.19073,97.073228 570.96447,99.875978 565.36623,102.62383 C 553.83682,108.28303 553.73652,108.49018 561.74241,110.11108 C 572.26797,112.24213 581.61642,118.27183 587.37772,126.64543 C 589.89241,130.30048 593.30692,138.37828 592.6024,139.00573 C 591.3384,140.13148 583.34136,140.92648 573.89836,140.86513 C 564.56244,140.80453 562.67778,140.98738 554.95765,142.70248 C 550.24237,143.75008 544.14892,144.91333 541.41675,145.28743 C 530.67151,146.75893 518.01739,145.75003 509.06107,142.70773 C 503.9791,140.98153 495.24139,136.49098 494.81818,135.38803 C 494.45582,134.44378 492.08719,134.20288 492.08719,135.11023 C 492.08719,135.42553 483.92362,141.21253 473.94589,147.97003 C 463.96816,154.72768 454.97,160.82803 453.94997,161.52658 C 452.92996,162.22513 452.09194,163.08253 452.0878,163.43173 C 452.08367,163.78108 455.23571,164.57878 459.09247,165.20428 C 477.60971,168.20818 493.09147,173.61928 495.33022,177.86998 C 495.74683,178.66093 496.39408,179.50708 496.76863,179.75023 C 497.18591,180.02128 496.96474,180.36613 496.19728,180.64123 C 488.02271,183.57103 467.41961,192.91198 460.0169,197.04448 C 444.62165,205.63903 438.68503,207.04483 416.7442,207.29158 C 398.43499,207.49738 399.29956,207.27823 391.02383,213.81385 C 383.40146,219.83385 372.08573,233.63835 372.06782,236.93935 C 372.06261,237.89535 372.70034,238.05075 376.62937,238.05075 C 379.14158,238.05075 383.87299,237.57285 387.14366,236.98855 C 394.84909,235.61235 401.53717,236.42655 412.30757,240.05205 C 421.5376,243.15895 422.23139,243.49795 422.23025,244.89985 C 422.22962,245.68875 421.13548,246.30775 418.26116,247.14555 C 408.20989,250.07505 389.71513,260.98935 380.01611,269.71515 C 368.5197,280.05795 358.29989,284.71635 341.67237,287.19285 C 338.18046,287.71285 334.49079,288.56895 333.47312,289.09525 C 326.92982,292.47895 310.7328,315.95545 313.68353,317.77905 C 314.00703,317.97895 314.27178,317.87605 314.27178,317.55025 C 314.27178,317.22445 317.05808,316.01145 320.46357,314.85435 C 325.9427,312.99285 327.45939,312.74655 333.64095,312.71325 C 343.18361,312.66195 348.95747,314.63445 355.95902,320.33715 C 357.85713,321.88315 359.68476,323.14815 360.02045,323.14815 C 360.35613,323.14815 360.6308,323.67415 360.6308,324.31725 C 360.6308,325.21095 359.83724,325.66375 357.261,326.24035 C 346.82292,328.57635 338.17169,335.08305 323.79792,351.40815 C 310.81581,366.15265 307.11921,369.74055 302.33706,372.23805 C 296.78496,375.13755 290.44782,377.05815 283.96772,377.80525 C 275.63871,378.76555 275.68521,378.72405 273.63372,387.04705 C 272.34647,392.26945 268.8809,394.90935 263.31204,394.90935 C 260.61738,394.90935 259.20476,394.48425 256.45364,392.84545 z M 265.39364,385.85985 C 265.41795,383.48805 268.26389,368.94435 268.81073,368.39755 C 269.0109,368.19735 270.28323,368.36565 271.63812,368.77165 C 272.99301,369.17755 276.21597,369.68835 278.8002,369.90685 C 283.13649,370.27335 283.98753,370.12615 289.83575,367.99815 C 301.31691,363.82005 301.17504,363.93165 314.23838,348.82165 C 321.5189,340.40055 328.26732,333.71185 334.49466,328.74445 C 340.26248,324.14385 340.94409,323.46715 340.94409,322.34265 C 340.94409,321.15585 332.89629,319.70235 329.30607,320.24055 C 323.72337,321.07785 317.27255,324.97705 308.8829,332.58595 C 302.18256,338.66265 297.93606,341.74225 296.9948,341.20765 C 294.6534,339.87775 293.31497,338.03815 293.31497,336.15015 C 293.31497,332.02275 304.91208,310.81465 314.4179,297.55855 C 326.51051,280.69485 327.96426,279.60115 339.43844,278.73315 C 345.1575,278.30055 347.32271,277.81485 352.05755,275.90205 C 355.20108,274.63225 359.63033,272.85645 361.9004,271.95595 C 364.17047,271.05565 366.17088,270.11905 366.34578,269.87485 C 366.89073,269.11395 377.28265,260.64675 380.95256,257.97345 C 389.21615,251.95405 394.92467,248.21155 395.84282,248.21155 C 396.47128,248.21155 396.82894,247.63585 396.82894,246.62395 C 396.82894,245.19855 396.57277,245.03635 394.32124,245.03635 C 389.43976,245.03635 377.32793,246.97515 367.20666,249.37675 C 358.50432,251.44185 356.7275,251.69085 355.45815,251.02315 C 353.78459,250.14285 350.88359,246.51525 351.59739,246.19525 C 351.85047,246.08175 354.47648,242.70255 357.43298,238.68585 C 368.9243,223.07335 383.82454,207.63253 392.36374,202.48768 L 397.10683,199.62988 L 415.22573,199.27648 L 433.34461,198.92323 L 439.69514,196.81948 C 447.21509,194.32843 449.89756,193.02403 458.01058,187.91278 C 465.21617,183.37318 470.41936,180.96898 474.14245,180.45868 C 476.59661,180.12223 476.84587,179.92303 476.84587,178.29808 C 476.84587,176.22628 478.28204,176.60233 460.96949,174.14233 C 449.59895,172.52653 448.83277,172.49623 437.15494,173.19928 C 422.70857,174.06898 422.86619,174.06778 422.86619,173.30233 C 422.86619,172.96798 426.22405,170.44108 430.32809,167.68693 C 434.43214,164.93263 439.64752,161.34193 441.91784,159.70738 C 450.87295,153.26038 466.68244,142.20343 467.80351,141.60358 C 468.45533,141.25468 471.97112,138.62443 475.61627,135.75838 C 482.29889,130.50433 488.65853,126.91753 491.29337,126.91663 C 492.07925,126.91633 492.72224,126.66088 492.72224,126.34903 C 492.72224,125.03173 494.5994,125.24788 497.21933,126.86698 C 500.02544,128.60113 507.41184,132.73033 510.61645,134.35618 C 513.6186,135.87943 520.74799,137.02978 529.89106,137.46613 C 540.09843,137.95348 545.46744,137.27068 551.78235,134.68228 C 555.64746,133.09813 556.66815,132.97528 567.8175,132.75148 C 574.36651,132.62008 579.72475,132.28453 579.72475,132.00583 C 579.72475,131.72698 578.40915,130.03558 576.8011,128.24713 C 574.79616,126.01708 572.45152,124.31428 569.33923,122.82808 C 564.60762,120.56863 562.57921,119.93878 548.90515,116.48308 C 544.35384,115.33288 539.7808,113.95258 538.74279,113.41588 C 536.27068,112.13743 534.39987,110.03038 534.80338,108.97888 C 535.15836,108.05413 558.21352,95.844428 565.75359,92.588228 C 573.4926,89.246078 580.8106,86.981078 586.39266,86.200178 C 591.42534,85.496228 591.75471,85.529078 595.04173,87.062528 C 596.96149,87.958028 600.96357,90.947978 604.17444,93.885128 C 611.62246,100.69858 615.39009,103.16878 620.05081,104.29468 C 623.69323,105.17458 651.87234,106.41043 662.59952,106.16053 C 668.83284,106.01548 673.71296,105.34168 673.71296,104.62633 C 673.71296,103.86718 670.80188,100.54348 665.44029,95.180978 C 660.52848,90.268328 650.73465,83.578178 646.7192,82.392578 L 643.8654,81.549878 L 643.8654,77.370428 L 643.8654,73.190828 L 649.34265,72.398978 C 658.75908,71.037428 667.4183,69.114578 674.63252,66.782828 C 681.0053,64.723178 681.86174,64.252478 684.90209,61.138328 C 688.74825,57.198878 689.42312,55.630028 688.23029,53.401178 L 687.37275,51.798728 L 678.16142,52.183778 C 668.23802,52.598528 638.78066,55.922528 632.02614,57.389678 C 630.78639,57.658928 630.70669,57.501878 631.13146,55.626278 C 632.06233,51.516428 635.64816,46.299878 642.58709,38.960978 C 649.57589,31.569428 651.73056,26.589128 650.24108,21.269228 C 649.78724,19.648178 649.30605,18.321728 649.17185,18.321728 C 649.03766,18.321728 647.34036,19.614878 645.39999,21.195278 C 641.00663,24.773678 632.95594,28.847528 621.41322,33.332978 C 609.3205,38.032328 604.29826,40.792328 599.35188,45.457178 C 594.15652,50.356778 591.59022,55.042328 589.82713,62.847878 C 587.63389,72.557678 588.86964,71.612678 569.88141,78.101228 C 545.49483,86.434628 522.57357,93.524528 522.56523,92.737028 C 522.56274,92.499728 524.47335,87.876128 526.8111,82.462328 C 529.67856,75.821678 532.64565,70.242728 535.93012,65.315828 C 541.10428,57.554228 543.52665,53.233328 543.52665,51.765128 C 543.52665,51.270128 543.9553,50.509328 544.47924,50.074478 C 545.63262,49.117178 545.74387,46.896728 544.63798,46.905428 C 543.41104,46.915028 537.84217,49.639178 533.32218,52.440878 C 531.07584,53.833328 524.75703,57.276728 519.28047,60.092828 C 498.94673,70.548728 491.81297,76.883228 488.36647,87.543278 C 487.97114,88.766078 487.37705,93.791678 487.04624,98.711378 C 486.67297,104.26258 486.04363,108.65863 485.38742,110.29858 C 483.8911,114.03838 480.93671,116.03188 438.10751,142.20163 C 434.78935,144.22918 428.21653,148.04878 423.50125,150.68968 L 414.928,155.49133 L 414.74143,150.67018 C 414.50716,144.61513 415.57385,140.83888 420.02654,131.96053 C 423.9028,124.23148 425.71454,119.19568 426.35372,114.37378 L 426.79573,111.03973 L 424.89889,111.03973 C 423.79864,111.03973 422.84854,111.43978 422.63656,111.99238 C 422.4355,112.51633 421.98055,112.94488 421.62556,112.94488 C 419.16484,112.94488 407.18261,122.37268 399.30616,130.50613 C 384.57155,145.72123 382.44367,151.49653 384.3842,171.00658 C 384.97729,176.96953 385.59227,182.71558 385.75091,183.77563 C 386.01592,185.54698 385.71808,185.91433 382.06702,188.31868 C 376.99433,191.65948 368.00798,200.77543 360.58736,210.10828 C 349.30865,224.29365 345.42689,228.87735 341.93852,232.13005 L 338.41269,235.41765 L 336.41748,234.42225 L 334.42227,233.42695 L 334.80527,228.91195 C 335.01591,226.42885 335.60544,222.25375 336.11532,219.63415 C 336.62528,217.01455 337.21752,211.51335 337.43154,207.40933 C 337.80444,200.25748 337.76817,199.94743 336.55922,199.94743 C 335.8655,199.94743 334.9251,200.63428 334.46945,201.47383 C 334.01373,202.31338 331.8087,205.08928 329.56937,207.64228 C 315.17655,224.05135 308.78757,243.09475 312.12345,259.64265 C 312.65157,262.26225 313.23429,266.26305 313.41852,268.53345 L 313.75346,272.66125 L 307.82082,282.04125 C 301.80731,291.54915 284.33484,317.52555 279.85656,323.61565 C 277.32771,327.05485 275.44916,328.02885 272.68368,327.33475 C 269.45964,326.52555 268.91171,324.53835 268.47504,312.07125 C 268.12328,302.02905 267.87434,300.05115 266.47227,296.15835 C 264.32781,290.20405 262.79168,286.94275 261.1533,284.86575 C 258.82742,281.91715 258.03557,282.58635 256.86267,288.49225 C 255.58806,294.91035 251.21577,311.03415 247.89551,321.56055 C 245.80224,328.19685 245.48763,330.00135 245.45958,335.53165 C 245.42058,343.20045 246.24704,345.59605 251.98997,354.46125 C 257.52714,363.00885 258.38357,365.54955 258.40205,373.48305 C 258.41043,377.05945 258.67233,381.08485 258.98408,382.42845 C 259.67883,385.42215 261.91461,387.92365 263.89559,387.92365 C 265.13421,387.92365 265.37598,387.59065 265.39364,385.85985 z M 962.98054,359.95615 C 958.78912,359.71545 954.14532,359.47975 952.66087,359.43235 L 949.96189,359.34625 L 949.96189,287.58505 C 949.96189,248.11635 950.04003,215.82385 950.13541,215.82385 C 950.23098,215.82385 956.58946,219.04585 964.26546,222.98395 L 978.22186,230.14405 L 978.38356,295.38025 L 978.54534,360.61635 L 974.57325,360.50515 C 972.38863,360.44385 967.1719,360.19695 962.98054,359.95615 z M 833.74685,262.21585 L 833.74685,164.45038 L 835.49326,165.02428 C 836.45371,165.33973 842.38358,167.16928 848.67059,169.08988 C 879.78626,178.59478 884.78848,180.29443 891.3788,183.60133 C 903.01212,189.43873 908.53797,193.35748 916.62147,201.50278 C 925.22977,210.17698 927.67479,216.29025 928.19095,230.43015 C 928.78084,246.59155 927.19129,255.06495 921.40035,266.62825 C 917.83039,273.75655 913.9972,279.06835 909.41971,283.22995 L 905.67727,286.63245 L 910.10968,296.47585 C 912.54757,301.88965 917.10573,312.03465 920.23903,319.02025 C 923.37234,326.00595 927.04528,334.00755 928.40119,336.80185 C 931.89673,344.00565 938.53089,358.84725 938.53089,359.46345 C 938.53089,359.74825 932.29537,359.98135 924.67411,359.98135 L 910.81732,359.98135 L 908.05695,353.78955 C 901.30891,338.65335 892.49425,319.30945 890.62141,315.52755 C 889.49716,313.25715 886.77257,307.32735 884.56676,302.35005 L 880.55629,293.30055 L 870.80527,293.30055 L 861.05417,293.30055 L 861.05417,326.64085 L 861.05417,359.98135 L 847.40051,359.98135 L 833.74685,359.98135 L 833.74685,262.21585 z M 882.75724,253.80255 C 887.35171,251.67775 891.81926,247.56195 893.96827,243.47425 C 895.46156,240.63385 895.65176,239.55715 895.65785,233.91315 C 895.66417,227.99745 895.5185,227.25555 893.57344,223.30135 C 891.04948,218.17015 886.42774,213.85735 881.37595,211.91955 C 878.73221,210.90538 875.91479,210.50188 869.7862,210.25978 L 861.68924,209.93968 L 861.68924,232.95805 L 861.68924,255.97645 L 870.42127,255.72285 C 878.19983,255.49695 879.54671,255.28725 882.75724,253.80255 z M 483.83147,300.40455 L 483.83147,241.46295 L 490.65832,237.11625 C 494.41309,234.72565 497.62805,232.59415 497.8027,232.37985 C 497.97733,232.16535 499.97774,230.82595 502.24807,229.40335 C 504.51839,227.98075 508.94791,225.18175 512.09142,223.18345 L 517.80691,219.55035 L 517.97472,239.27895 L 518.14255,259.00755 L 532.73976,259.00755 L 547.33696,259.00755 L 547.33696,228.57625 L 547.33696,198.14488 L 555.11641,194.33818 C 562.4925,190.72888 577.63977,183.67018 582.10623,181.76098 L 584.17017,180.87883 L 584.17017,270.11245 L 584.17017,359.34625 L 565.75948,359.34625 L 547.34884,359.34625 L 547.18413,327.75225 L 547.01946,296.15835 L 532.57197,295.98765 L 518.12442,295.81695 L 518.12442,327.58155 L 518.12442,359.34625 L 500.97796,359.34625 L 483.83147,359.34625 L 483.83147,300.40455 z M 601.95171,267.95725 L 601.95171,176.56828 L 609.09607,174.35398 C 613.02553,173.13613 625.67101,169.22338 637.19729,165.65908 C 648.72357,162.09478 661.96833,157.90078 666.63003,156.33913 C 671.29187,154.77748 675.18605,153.59113 675.28376,153.70288 C 675.38147,153.81463 675.66677,162.40783 675.91778,172.79878 L 676.37418,191.69173 L 657.26202,191.69173 L 638.14988,191.69173 L 638.14988,211.06093 L 638.14988,230.43015 L 657.21117,230.43015 L 676.27236,230.43015 L 676.10399,249.00555 L 675.93567,267.58075 L 657.04275,267.74905 L 638.14988,267.91725 L 638.14988,295.85025 L 638.14988,323.78325 L 657.51906,323.78325 L 676.88826,323.78325 L 676.88826,341.56465 L 676.88826,359.34625 L 639.42002,359.34625 L 601.95171,359.34625 L 601.95171,267.95725 z M 695.30481,258.35985 L 695.30481,157.37353 L 708.74475,157.54483 L 722.18471,157.71628 L 747.76521,208.83823 L 773.34571,259.96015 L 773.38115,208.04443 L 773.4166,156.12868 L 789.928,156.12868 L 806.43946,156.12868 L 806.43946,257.73745 L 806.43946,359.34625 L 790.01476,359.34625 L 773.59001,359.34625 L 771.82681,355.37715 C 770.23499,351.79395 755.47839,320.82765 742.15098,293.10345 C 739.32851,287.23185 735.92837,280.37325 734.59527,277.86205 L 732.17141,273.29635 L 732.15473,316.32135 L 732.13805,359.34625 L 713.72142,359.34625 L 695.30481,359.34625 L 695.30481,258.35985 z "
     id="path2161" />
</svg>
