<?xml version="1.0" encoding="UTF-8" standalone="no"?>
<!-- Created with Inkscape (http://www.inkscape.org/) -->

<svg
   xmlns:dc="http://purl.org/dc/elements/1.1/"
   xmlns:cc="http://creativecommons.org/ns#"
   xmlns:rdf="http://www.w3.org/1999/02/22-rdf-syntax-ns#"
   xmlns:svg="http://www.w3.org/2000/svg"
   xmlns="http://www.w3.org/2000/svg"
   xmlns:sodipodi="http://sodipodi.sourceforge.net/DTD/sodipodi-0.dtd"
   xmlns:inkscape="http://www.inkscape.org/namespaces/inkscape"
   id="svg2"
   version="1.1"
   inkscape:version="0.48.5 r10040"
   width="356.31262"
   height="101.0521"
   xml:space="preserve"
   sodipodi:docname="30308_OTGap_bd.pdf"><metadata
     id="metadata8"><rdf:RDF><cc:Work
         rdf:about=""><dc:format>image/svg+xml</dc:format><dc:type
           rdf:resource="http://purl.org/dc/dcmitype/StillImage" /><dc:title></dc:title></cc:Work></rdf:RDF></metadata><defs
     id="defs6"><linearGradient
       x1="0"
       y1="0"
       x2="1"
       y2="0"
       gradientUnits="userSpaceOnUse"
       gradientTransform="matrix(0,551.44312,551.44312,0,0,-56.692917)"
       spreadMethod="pad"
       id="linearGradient28"><stop
         style="stop-opacity:1;stop-color:#ffffff"
         offset="0"
         id="stop30" /><stop
         style="stop-opacity:0;stop-color:#ffffff"
         offset="0.899994"
         id="stop32" /><stop
         style="stop-opacity:0;stop-color:#ffffff"
         offset="0.899994"
         id="stop34" /><stop
         style="stop-opacity:0;stop-color:#ffffff"
         offset="1"
         id="stop36" /></linearGradient><clipPath
       clipPathUnits="userSpaceOnUse"
       id="clipPath870"><path
         d="m 174.199,56.693 89.423,0 0,45.864 -89.423,0 0,-45.864 z"
         id="path872"
         inkscape:connector-curvature="0" /></clipPath></defs><sodipodi:namedview
     pagecolor="#ffffff"
     bordercolor="#666666"
     borderopacity="1"
     objecttolerance="10"
     gridtolerance="10"
     guidetolerance="10"
     inkscape:pageopacity="0"
     inkscape:pageshadow="2"
     inkscape:window-width="1280"
     inkscape:window-height="672"
     id="namedview4"
     showgrid="false"
     fit-margin-top="0"
     fit-margin-left="0"
     fit-margin-right="0"
     fit-margin-bottom="0"
     inkscape:zoom="0.89707474"
     inkscape:cx="-11.841556"
     inkscape:cy="132.79899"
     inkscape:window-x="0"
     inkscape:window-y="1"
     inkscape:window-maximized="1"
     inkscape:current-layer="g10" /><g
     id="g10"
     inkscape:groupmode="layer"
     inkscape:label="30308_OTGap_bd"
     transform="matrix(1.25,0,0,-1.25,-217.74876,203.12248)"><g
       id="g866"
       transform="matrix(3.8678935,0,0,3.8678935,-499.58417,-234.18157)"><g
         id="g868"
         clip-path="url(#clipPath870)"><g
           id="g874"
           transform="translate(174.1988,96.7243)"
           style="fill:#5872a3;fill-opacity:1"><path
             d="m 0,0 11.504,4.375 6.967,-6.157 5.346,3.24 c 0,0 2.431,-5.022 5.347,-4.86 2.916,0.162 8.101,3.564 8.101,3.564 l -5.509,-1.62 -2.592,5.833 -8.587,-2.917 -5.995,4.375 c 0,0 -3.316,-0.042 -6.157,-1.134 C 4.213,3.078 0,0 0,0"
             style="fill:#5872a3;fill-opacity:1;fill-rule:nonzero;stroke:none"
             id="path876"
             inkscape:connector-curvature="0" /></g><g
           id="g878"
           transform="translate(223.7504,96.0047)"><path
             d="m 0,0 c 0,-0.006 -1.166,-2.769 -1.18,-2.751 -0.494,0.653 -2.898,1.036 -4.378,0.909 -2.315,-0.198 -4.742,-1.934 -4.703,-4.486 0.008,-1.542 2.4,-2.146 3.969,-1.621 -0.006,-0.075 0.573,1.335 0.494,1.334 -0.5,-0.006 -1.457,-0.016 -1.506,0.003 0.017,0.031 0.812,2.421 0.769,2.39 l 5.347,0 c -0.691,-2.04 -1.252,-4.117 -1.944,-6.157 -3.983,-0.38 -10.744,-1.601 -11.868,2.998 -0.309,2.694 1.049,4.931 3.308,6.355 C -5.831,2.667 0,0.085 0,0"
             style="fill:#f7aa0d;fill-opacity:1;fill-rule:nonzero;stroke:none"
             id="path880"
             inkscape:connector-curvature="0" /></g><g
           id="g882"
           transform="translate(227.1123,93.8512)"><path
             d="M 0,0 C 0.641,0.124 1.062,0.253 1.941,0.313 3.077,0.388 4.174,0.433 5.232,0.087 5.883,-0.126 6.161,-0.311 6.448,-0.785 7.484,-2.503 5.717,-4.243 5.742,-5.955 5.752,-6.594 6.42,-6.473 6.694,-6.433 6.737,-6.426 5.537,-8.626 5.576,-8.59 4.46,-8.95 2.873,-8.896 2.269,-8.503 2.04,-8.354 1.637,-7.989 1.637,-7.989 c -1.771,-0.607 -3.53,-1.205 -5.477,-0.613 -0.332,0.1 -0.858,0.473 -0.995,0.876 -0.116,0.343 -0.39,0.85 0.128,1.831 1.099,2.083 3.905,1.836 6.954,2.388 0.306,0.056 0.419,0.461 0.315,0.785 -0.091,0.282 -0.415,0.399 -0.64,0.437 -1.978,0.336 -3.811,-0.529 -5.5,-1.404 0.057,-0.031 0.795,2.659 0.844,2.669 0.07,0.014 1.662,0.814 2.734,1.02"
             style="fill:#009fdb;fill-opacity:1;fill-rule:nonzero;stroke:none"
             id="path884"
             inkscape:connector-curvature="0" /></g><g
           id="g886"
           transform="translate(228.8813,88.7042)"><path
             d="m 0,0 c 0,0 -3.808,-0.405 -3.078,-1.458 0.729,-1.053 2.673,-0.162 2.673,-0.162 L 0,0"
             style="fill:#eb6f44;fill-opacity:1;fill-rule:nonzero;stroke:none"
             id="path888"
             inkscape:connector-curvature="0" /></g><g
           id="g890"
           transform="translate(232.7698,81.7373)"
           style="fill:#7ac141;fill-opacity:1"><path
             d="m 0,0 4.051,12.314 4.131,0 -0.162,-0.648 c 0,0 2.349,0.891 3.808,0.729 1.35,-0.15 3.719,-1.053 3.233,-3.727 C 14.587,6.057 12.641,3.324 8.709,3.261 6.177,3.22 5.428,3.645 5.428,3.645 L 6.4,6.562 c 0,0 0.886,-0.541 2.43,-0.243 1.155,0.223 1.723,1.098 1.863,1.863 0.145,0.785 -0.486,1.458 -1.782,1.458 l -1.458,0 -3.24,-9.721 -4.213,0"
             style="fill:#7ac141;fill-opacity:1;fill-rule:nonzero;stroke:none"
             id="path892"
             inkscape:connector-curvature="0" /></g><g
           id="g894"
           transform="translate(221.2688,100.4894)"><path
             d="m 0,0 0,-2.239 c 0,-0.053 -0.001,-0.081 -0.003,-0.107 -0.002,-0.025 -0.006,-0.051 -0.01,-0.076 l 0,-0.411 -0.215,0 0,0.073 c -0.109,-0.061 -0.259,-0.092 -0.45,-0.092 -0.45,0 -0.673,0.196 -0.673,0.588 l 0,0.738 c 0,0.389 0.223,0.584 0.673,0.584 0.203,0 0.356,-0.032 0.456,-0.097 l 0,1.039 m -0.006,-1.381 c -0.031,0.209 -0.18,0.313 -0.45,0.313 -0.305,0 -0.457,-0.147 -0.457,-0.443 l 0,-0.762 c 0,-0.148 0.025,-0.256 0.078,-0.323 0.069,-0.09 0.195,-0.135 0.379,-0.135 0.265,0 0.415,0.109 0.45,0.328 l 0,1.022"
             style="fill:#212221;fill-opacity:1;fill-rule:nonzero;stroke:none"
             id="path896"
             inkscape:connector-curvature="0" /></g><g
           id="g898"
           transform="translate(221.2688,100.4894)"><path
             d="m 0,0 0,-2.239 c 0,-0.053 -0.001,-0.081 -0.003,-0.107 -0.002,-0.025 -0.006,-0.051 -0.01,-0.076 l 0,-0.411 -0.215,0 0,0.073 c -0.109,-0.061 -0.259,-0.092 -0.45,-0.092 -0.45,0 -0.673,0.196 -0.673,0.588 l 0,0.738 c 0,0.389 0.223,0.584 0.673,0.584 0.203,0 0.356,-0.032 0.456,-0.097 l 0,1.039 m -0.006,-1.381 c -0.031,0.209 -0.18,0.313 -0.45,0.313 -0.305,0 -0.457,-0.147 -0.457,-0.443 l 0,-0.762 c 0,-0.148 0.025,-0.256 0.078,-0.323 0.069,-0.09 0.195,-0.135 0.379,-0.135 0.265,0 0.415,0.109 0.45,0.328 l 0,1.022 z"
             style="fill:none;stroke:#212221;stroke-width:0.02637094;stroke-linecap:butt;stroke-linejoin:miter;stroke-miterlimit:4;stroke-opacity:1;stroke-dasharray:none"
             id="path900"
             inkscape:connector-curvature="0" /></g><g
           id="g902"
           transform="translate(207.1266,97.6603)"><path
             d="m 0,0 -0.176,0 -0.577,2.779 0.22,0 0.442,-2.172 0.447,2.172 0.221,0 L 0,0 z"
             style="fill:#212221;fill-opacity:1;fill-rule:nonzero;stroke:none"
             id="path904"
             inkscape:connector-curvature="0" /></g><g
           id="g906"
           transform="translate(207.1266,97.6603)"><path
             d="m 0,0 -0.176,0 -0.577,2.779 0.22,0 0.442,-2.172 0.447,2.172 0.221,0 L 0,0 z"
             style="fill:none;stroke:#212221;stroke-width:0.02637094;stroke-linecap:butt;stroke-linejoin:miter;stroke-miterlimit:4;stroke-opacity:1;stroke-dasharray:none"
             id="path908"
             inkscape:connector-curvature="0" /></g><g
           id="g910"
           transform="translate(211.3459,97.6607)"><path
             d="M 0,0 0,2.631 0.221,2.791 0.221,0 0,0 z"
             style="fill:#212221;fill-opacity:1;fill-rule:nonzero;stroke:none"
             id="path912"
             inkscape:connector-curvature="0" /></g><g
           id="g914"
           transform="translate(211.3459,97.6607)"><path
             d="M 0,0 0,2.631 0.221,2.791 0.221,0 0,0 z"
             style="fill:none;stroke:#212221;stroke-width:0.02637094;stroke-linecap:butt;stroke-linejoin:miter;stroke-miterlimit:4;stroke-opacity:1;stroke-dasharray:none"
             id="path916"
             inkscape:connector-curvature="0" /></g><g
           id="g918"
           transform="translate(213.3958,97.6607)"><path
             d="M 0,0 0,2.631 0.221,2.791 0.221,0 0,0 z"
             style="fill:#212221;fill-opacity:1;fill-rule:nonzero;stroke:none"
             id="path920"
             inkscape:connector-curvature="0" /></g><g
           id="g922"
           transform="translate(213.3958,97.6607)"><path
             d="M 0,0 0,2.631 0.221,2.791 0.221,0 0,0 z"
             style="fill:none;stroke:#212221;stroke-width:0.02637094;stroke-linecap:butt;stroke-linejoin:miter;stroke-miterlimit:4;stroke-opacity:1;stroke-dasharray:none"
             id="path924"
             inkscape:connector-curvature="0" /></g><g
           id="g926"
           transform="translate(216.1013,97.6141)"><path
             d="m 0,0 c -0.446,0 -0.669,0.197 -0.669,0.593 l 0,1.628 c 0,0.395 0.223,0.593 0.669,0.593 0.45,0 0.675,-0.198 0.675,-0.593 l 0,-0.719 -1.129,0 0,-0.919 c 0,-0.308 0.151,-0.461 0.454,-0.461 0.303,0 0.455,0.153 0.455,0.461 l 0,0.093 0.22,0 0,-0.083 C 0.675,0.197 0.45,0 0,0 m 0.455,2.231 c 0,0.304 -0.152,0.457 -0.455,0.457 -0.303,0 -0.454,-0.153 -0.454,-0.457 l 0,-0.579 0.909,0 0,0.579"
             style="fill:#212221;fill-opacity:1;fill-rule:nonzero;stroke:none"
             id="path928"
             inkscape:connector-curvature="0" /></g><g
           id="g930"
           transform="translate(216.1013,97.6141)"><path
             d="m 0,0 c -0.446,0 -0.669,0.197 -0.669,0.593 l 0,1.628 c 0,0.395 0.223,0.593 0.669,0.593 0.45,0 0.675,-0.198 0.675,-0.593 l 0,-0.719 -1.129,0 0,-0.919 c 0,-0.308 0.151,-0.461 0.454,-0.461 0.303,0 0.455,0.153 0.455,0.461 l 0,0.093 0.22,0 0,-0.083 C 0.675,0.197 0.45,0 0,0 z m 0.455,2.231 c 0,0.304 -0.152,0.457 -0.455,0.457 -0.303,0 -0.454,-0.153 -0.454,-0.457 l 0,-0.579 0.909,0 0,0.579 z"
             style="fill:none;stroke:#212221;stroke-width:0.02637094;stroke-linecap:butt;stroke-linejoin:miter;stroke-miterlimit:4;stroke-opacity:1;stroke-dasharray:none"
             id="path932"
             inkscape:connector-curvature="0" /></g><g
           id="g934"
           transform="translate(222.9496,97.6141)"><path
             d="m 0,0 c -0.445,0 -0.669,0.197 -0.669,0.593 l 0,1.628 c 0,0.395 0.224,0.593 0.669,0.593 0.45,0 0.676,-0.198 0.676,-0.593 l 0,-0.719 -1.13,0 0,-0.919 c 0,-0.308 0.152,-0.461 0.454,-0.461 0.303,0 0.455,0.153 0.455,0.461 l 0,0.093 0.221,0 0,-0.083 C 0.676,0.197 0.45,0 0,0 m 0.455,2.231 c 0,0.304 -0.152,0.457 -0.455,0.457 -0.302,0 -0.454,-0.153 -0.454,-0.457 l 0,-0.579 0.909,0 0,0.579"
             style="fill:#212221;fill-opacity:1;fill-rule:nonzero;stroke:none"
             id="path936"
             inkscape:connector-curvature="0" /></g><g
           id="g938"
           transform="translate(222.9496,97.6141)"><path
             d="m 0,0 c -0.445,0 -0.669,0.197 -0.669,0.593 l 0,1.628 c 0,0.395 0.224,0.593 0.669,0.593 0.45,0 0.676,-0.198 0.676,-0.593 l 0,-0.719 -1.13,0 0,-0.919 c 0,-0.308 0.152,-0.461 0.454,-0.461 0.303,0 0.455,0.153 0.455,0.461 l 0,0.093 0.221,0 0,-0.083 C 0.676,0.197 0.45,0 0,0 z m 0.455,2.231 c 0,0.304 -0.152,0.457 -0.455,0.457 -0.302,0 -0.454,-0.153 -0.454,-0.457 l 0,-0.579 0.909,0 0,0.579 z"
             style="fill:none;stroke:#212221;stroke-width:0.02637094;stroke-linecap:butt;stroke-linejoin:miter;stroke-miterlimit:4;stroke-opacity:1;stroke-dasharray:none"
             id="path940"
             inkscape:connector-curvature="0" /></g><path
           d="m 209.291,101.02 0.223,0 0,-0.155 -0.223,0 0,0.155 z m 0,-0.573 0.223,0 0,-2.784 -0.223,0 0,2.784 z"
           style="fill:#212221;fill-opacity:1;fill-rule:nonzero;stroke:#212221;stroke-width:0.02637094;stroke-linecap:butt;stroke-linejoin:miter;stroke-miterlimit:4;stroke-opacity:1;stroke-dasharray:none"
           id="path942"
           inkscape:connector-curvature="0" /></g></g></g></svg>