<svg xmlns="http://www.w3.org/2000/svg" viewBox="0 0 64 64" width="64" height="64">
  <path fill="#fff" d="M32 7L6 23v33h51V23L32 7z" />
  <path fill="#666" d="M4.7 20.1L30.6 4.4c.9-.5 2-.5 2.9 0l25.9 15.7c.4.3.7.7.7 1.2v35.9c0 1.6-1.3 2.8-2.8 2.8H6.8C5.3 60 4 58.7 4 57.2V21.3c0-.5.3-1 .7-1.2zm4.9 3.6v30.7h44.8V23.7L32 10.1 9.6 23.7z"/>
  <path fill="#1d83d4" d="M41.9 43.8c0-3.5-2.8-6.3-6.2-6.3h-7.5c-3.4 0-6.2 2.8-6.2 6.2v3.2c2.8 2 6.3 3.2 10 3.2s7.2-1.2 10-3.2l-.1-3.1zM32 35c-4.1 0-7.5-3.4-7.5-7.5S27.9 20 32 20s7.5 3.4 7.5 7.5S36.1 35 32 35z"/>
</svg>
