<svg xmlns="http://www.w3.org/2000/svg" width="64" height="64" viewBox="0 0 64 64">
  <path d="M38.82 5.535c.726 0 1.32.594 1.32 1.32V26.5H19.125v14.675H3.18c-.726 0-1.32-.594-1.32-1.32v-33c0-.726.594-1.32 1.32-1.32h35.64z" fill="#666"/>
  <path d="M11.76 1.575h3.96v4.62h-3.96zm14.52 0h3.96v4.62h-3.96z" fill="#666"/>
  <path d="M5.82 14.115h30.36v23.1H5.82z" fill="#FFF"/>
  <path d="M16.644 18.273c.198 0 .33 0 .462.198l.132.396v14.256c0 .198 0 .33-.132.396-.132.132-.264.198-.462.198h-1.782c-.132 0-.33 0-.396-.132-.132-.132-.198-.264-.198-.462V22.299l-3.102 2.442c-.132.132-.33.132-.462.132-.132-.066-.33-.132-.396-.264l-1.056-1.32c-.132-.132-.132-.264-.132-.462s.132-.33.264-.396l4.752-3.762.396-.264c.132-.132.264-.132.396-.132h1.716zM30.768 18.273c.132 0 .264 0 .396.198.132.066.198.198.198.396v1.584l-.198.462-.33.33-3.234 3.432c.66.066 1.32.198 1.848.462 1.107.552.545.174 1.609 1.238h-7.483v-1.304c0-.132.066-.33.198-.462l.33-.33 3.036-3.3h-6.072c-.198 0-.33 0-.396-.132-.132-.132-.198-.264-.198-.396v-1.584c0-.198 0-.33.198-.462l.396-.132h9.702z" fill="#1D83D4"/>
  <g>
    <path d="M59.119 60.927H23.662c-1.5 0-2.727-1.227-2.727-2.727V30.925c0-1.5 1.227-2.727 2.727-2.727h35.457c1.5 0 2.727 1.227 2.727 2.727V58.2c0 1.5-1.227 2.727-2.727 2.727z" fill="#666"/>
    <path d="M24.344 31.607h34.093v25.911H24.344z" fill="#FFF"/>
    <path d="M42.754 37.062h13.637v3.409H42.754zm0 6.137h13.637v3.409H42.754zm0 6.136h13.637v3.41H42.754z" fill="#D3D3D3"/>
    <path d="M39.277 50.631c0-2.182-1.773-3.955-3.887-3.955h-4.704c-2.182 0-3.887 1.773-3.887 3.887v1.977c1.773 1.228 3.955 1.978 6.273 1.978 2.318 0 4.5-.75 6.273-1.978l-.068-1.909zm-6.205-5.523c-2.591 0-4.705-2.114-4.705-4.705s2.114-4.705 4.705-4.705 4.705 2.114 4.705 4.705-2.114 4.705-4.705 4.705z" fill="#119914"/>
  </g>
</svg>