<svg xmlns="http://www.w3.org/2000/svg" viewBox="0 0 64 64" width="64" height="64">
  <path fill="#666" d="M52 43.1 31 6.7l-.2-.3c-1-1.7-2.8-2.9-4.8-3.2L11.3 1.3c-1.6-.2-3.2.7-3.8 2.2L1.8 17.2c-.8 1.9-.6 4 .4 5.7l21.2 36.8c1.7 2.9 5.5 4 8.4 2.3l2.7-1.6 15.2-8.8c3-1.8 4-5.5 2.3-8.5zm-38.8-27c-1.1-1.9-.4-4.4 1.5-5.5 1.9-1.1 4.4-.4 5.5 1.5 1.1 1.9.4 4.4-1.5 5.5-1.9 1.1-4.4.4-5.5-1.5z"/>
  <path fill="#1d83d4" d="M57.608 2.136H41.2a3.29 3.29 0 0 0-3.28 3.282v16.406a3.29 3.29 0 0 0 3.28 3.281h16.407a3.29 3.29 0 0 0 3.28-3.281V5.418a3.29 3.29 0 0 0-3.28-3.282zm-2.133 9.352c-1.184 2.858-6.563 6.563-6.563 6.563-.328.328-.656.492-1.148.492-.492 0-.82-.164-1.149-.492l-3.28-3.282c-.657-.656-.657-1.64 0-2.297.655-.656 1.64-.656 2.296 0l2.133 2.133 5.414-5.414c.656-.656 1.64-.656 2.297 0 .656.656.293 1.59 0 2.297z"/>
</svg>