<svg xmlns="http://www.w3.org/2000/svg" viewBox="0 0 64 64" width="64" height="64">
  <path fill="#fff" d="M32 7L6 23v33h51V23L32 7z"/>
  <path fill="#666" d="M4.7 20.1L30.6 4.4c.9-.5 2-.5 2.9 0l25.9 15.7c.4.3.7.7.7 1.2v35.9c0 1.6-1.3 2.8-2.8 2.8H6.8C5.3 60 4 58.7 4 57.2V21.3c0-.5.3-1 .7-1.2zm4.9 3.6v30.7h44.8V23.7L32 10.1 9.6 23.7z"/>
  <circle fill="#444" cx="18" cy="37" r="5"/>
  <circle fill="#444" cx="45.2" cy="37" r="5"/>
  <path fill="#1d83d4" d="M32.1 36.6L47 24l3.6 4.4L32.2 44 13.4 28.4 17 24l15.1 12.6z"/>
  <path fill="#888" stroke="#888" stroke-width="4" d="M25 45c0 3 3 6 7 6m7-6c0 3-3 6-7 6"/>
</svg>