<svg xmlns="http://www.w3.org/2000/svg" viewBox="0 0 64 64" width="64" height="64">
  <path fill="#666" d="M59.2.3a1 1 0 0 0-1.4 0L54 4H30.8L1.5 33.5a3.5 3.5 0 0 0 0 5L22 59a3.5 3.5 0 0 0 5 0l28.5-29.3V5.4l3.7-3.7c.4-.4.4-1 0-1.4zM47.5 15a3 3 0 1 1-3-3c.5 0 .9.1 1.3.3l-2 2a1 1 0 1 0 1.4 1.4l2-2c.2.4.3.8.3 1.3z"/>
  <path fill="#fff" d="m53.5 28.9-28 28.7c-.5.5-1.5.5-2 0L2.8 37a1.5 1.5 0 0 1 0-2.2L31.6 6h20.5l-4.8 4.8a5 5 0 1 0 1.4 1.4l4.8-4.8V29z"/>
  <path fill="#1d83d4" d="m36 20.3-4-.6-1 6.3h-4l1-5.7-4-.6-1 6.3h-5v4h4.3l-.7 4H18v4h3l-1 5.7 4 .6 1-6.3h4l-1 5.7 4 .6 1-6.3h5v-4h-4.3l.7-4H38v-4h-3zM29.6 34h-4l.8-4h4z"/>
</svg>