<svg xmlns="http://www.w3.org/2000/svg" width="64" height="64" viewBox="0 0 64 64">
  <path fill="#b47d5a" d="M43.04 15.494c-1.867 3.958-3.467 14.496-1.28 15.529s9.497 4.243 9.973-.96c.257-6.052.123-28.12.123-28.12s-6.942 9.59-8.815 13.551z"/>
  <path fill="#ffa54b" d="M32 12c16.012 0 20.012 14 22.3 27.695C56.59 53.39 49.091 61.989 32.012 62c0-8.225-.012-38.524-.012-50"/>
  <path fill="#b47d5a" d="M20.979 15.494c1.867 3.958 3.468 14.496 1.28 15.529s-9.497 4.243-9.972-.96c-.257-6.052-.123-28.12-.123-28.12s6.942 9.59 8.815 13.551"/>
  <path fill="#ffa54b" d="M32.012 12C16 12 12 26 9.712 39.695S14.92 61.989 32 62c0-8.225.012-38.524.012-50"/>
  <path fill="#ffdeb7" d="M26.799 47.732c-1.683.08-3.06 2.178-3.06 4.27s.8 3.572 3.671 3.572c2.074 0 3.308-.459 4.672-1.207 1.364.748 2.6 1.207 4.674 1.207 2.872 0 3.672-1.48 3.672-3.572 0-2.789-2.448-5.59-4.805-3.6 0 2.923-3.12 2.506-3.541 5.287-.42-2.78-3.539-2.364-3.539-5.287-.59-.497-1.183-.696-1.744-.67"/>
  <path fill="#464655" fill-rule="evenodd" d="M28.982 47a1 1 0 0 0-.14.012 1 1 0 0 0-.83 1.146s.137.913.677 1.844S30.344 52 32 52c1.61 0 2.695-1.067 3.248-1.982.553-.916.73-1.815.73-1.815a1 1 0 0 0-.775-1.182 1 1 0 0 0-1.182.776s-.133.601-.486 1.185C33.183 49.567 32.77 50 32 50c-.862 0-1.25-.433-1.58-1.002s-.432-1.156-.432-1.156A1 1 0 0 0 28.982 47m-5.484 2.162a1 1 0 0 0-.941.674c-.635 1.842-.453 3.49.326 4.687s2.045 1.892 3.355 2.215a7.7 7.7 0 0 0 1.961.221c.105.326.253.718.49 1.127.54.931 1.655 1.998 3.311 1.998 1.61 0 2.695-1.067 3.248-1.982.25-.415.416-.815.531-1.141a7.8 7.8 0 0 0 1.973-.223c1.31-.323 2.575-1.017 3.353-2.215.78-1.197.961-2.845.327-4.687a1 1 0 0 0-.97-.674 1 1 0 0 0-.302.055 1 1 0 0 0-.619 1.27c.489 1.417.312 2.293-.111 2.945-.424.65-1.208 1.13-2.159 1.365-.95.234-2.035.204-2.867-.045-.803-.24-1.284-.646-1.447-1.05a1 1 0 0 0-.63-.661 1 1 0 0 0-.194-.045l-.053-.006-.031-.002a1 1 0 0 0-.387.053 1 1 0 0 0-.633.662c-.164.404-.644.81-1.445 1.049-.831.249-1.917.28-2.867.045-.95-.234-1.735-.714-2.158-1.365-.424-.652-.598-1.528-.11-2.946a1 1 0 0 0-.62-1.27 1 1 0 0 0-.33-.054zm8.496 6.527c.499.437 1.117.747 1.764.95a4 4 0 0 1-.223.427c-.352.585-.766 1.018-1.535 1.018-.862 0-1.25-.433-1.58-1.002a4 4 0 0 1-.213-.434c.656-.202 1.282-.516 1.787-.959" color="#000" font-family="sans-serif" font-weight="400" overflow="visible" style="line-height:normal;font-variant-ligatures:normal;font-variant-position:normal;font-variant-caps:normal;font-variant-numeric:normal;font-variant-alternates:normal;font-variant-east-asian:normal;font-feature-settings:normal;font-variation-settings:normal;text-indent:0;text-align:start;text-decoration:none;text-decoration-line:none;text-decoration-style:solid;text-decoration-color:#000;text-transform:none;text-orientation:mixed;shape-padding:0;shape-margin:0;inline-size:0;isolation:auto;mix-blend-mode:normal"/>
  <path fill="#c3875a" d="M32 12c-5.67.007-9.73 1.63-13.768 5.262 2.093 12.8 4.761 24.534 9.768 29.54 0 0 .376-4.146 4-4.146s4 4.147 4 4.147c5.007-5.007 7.675-16.74 9.768-29.541C41.729 13.629 37.67 12.007 32 12"/>
  <path fill="none" stroke="#464655" stroke-linecap="round" stroke-width="2" d="M32 51v3"/>
  <path fill-opacity=".2" d="M12.165 1.943s6.638 9.18 8.668 13.276C23.714 13.195 27.355 12 32.021 12c0 11.476-.012 41.775-.012 50-17.08-.01-24.578-8.61-22.29-22.305.634-3.791 1.414-7.596 2.528-11.13-.196-7.43-.082-26.622-.082-26.622"/>
  <g paint-order="fill markers stroke" transform="translate(0 2)">
    <path fill="#383844" stroke="#383844" stroke-linecap="round" stroke-linejoin="round" d="M53.137 24a2.76 2.76 0 0 0-1.59.557l-10.332 7.78-2.295-2.892a2.765 2.765 0 0 0-3.883-.441 2.77 2.77 0 0 0-.986 2.639c-.607-.426-1.289-.694-2.051-.694-.82 0-1.548.307-2.188.791C28.995 27.904 25.57 25 21.5 25c-4.504 0-8.212 3.558-8.475 8H10a1 1 0 0 0-1 1 1 1 0 0 0 1 1h3.143c.715 3.964 4.196 7 8.357 7 4.374 0 8.004-3.354 8.451-7.615.63-.971 1.358-1.436 2.049-1.436.726 0 1.494.495 2.145 1.569A1 1 0 0 0 35 35h1.268l3.968 5.002L46.88 35H54a1 1 0 1 0 0-2h-4.465l5.326-4.012a2.785 2.785 0 0 0 .553-3.877A2.76 2.76 0 0 0 53.137 24m.023 1h.002a1.76 1.76 0 0 1 1.45.709h.001a1.77 1.77 0 0 1-.353 2.48L47.87 33h-5.875l10.152-7.645v-.002c.293-.22.647-.343 1.012-.353zM21.5 26c3.82 0 6.987 2.89 7.44 6.592-.119.136-.246.261-.356.408h-1.607c-.252-2.81-2.6-5-5.477-5a5.49 5.49 0 0 0-5.5 5.5 5.49 5.49 0 0 0 5.5 5.5 5.486 5.486 0 0 0 5.29-4h2.06c-.7 3.415-3.735 6-7.35 6-3.619 0-6.657-2.591-7.352-6.012A1 1 0 0 0 15 34a1 1 0 0 0-.975-1c.26-3.895 3.516-7 7.475-7m0 3c2.341 0 4.204 1.732 4.451 4H24a1 1 0 0 0-1 1 1 1 0 0 0 1 1h1.73a4.45 4.45 0 0 1-4.23 3 4.465 4.465 0 0 1-4.5-4.5c0-2.513 1.987-4.5 4.5-4.5m15.121.402a1.75 1.75 0 0 1 1.516.666l2.527 3.184A1 1 0 0 0 40 33h-4.043l-.576-.725a1.77 1.77 0 0 1 .281-2.49c.287-.23.622-.356.96-.383zm4.258 4.121.158.2.022-.016A1 1 0 0 0 41 34a1 1 0 0 0 1 1h3.215l-4.8 3.615L37.542 35H40a1 1 0 0 0 1-1 1 1 0 0 0-.121-.477" color="#000" font-family="sans-serif" font-weight="400" overflow="visible" style="line-height:normal;font-variant-ligatures:normal;font-variant-position:normal;font-variant-caps:normal;font-variant-numeric:normal;font-variant-alternates:normal;font-variant-east-asian:normal;font-feature-settings:normal;font-variation-settings:normal;text-indent:0;text-align:start;text-decoration:none;text-decoration-line:none;text-decoration-style:solid;text-decoration-color:#000;text-transform:none;text-orientation:mixed;shape-padding:0;shape-margin:0;inline-size:0;isolation:auto;mix-blend-mode:normal"/>
    <path fill="#383844" fill-opacity=".3" d="m21.77 32.888-10.787.473s-.527 2.266-.683 3.139h2.198c1.265 3.764 4.827 6.5 9.002 6.5 4.68 0 8.59-3.437 9.355-7.908.407-.413.805-.592 1.145-.592.499 0 1.121.345 1.717 1.328a1.5 1.5 0 0 0 1.283.723h1.566l3.696 4.656 6.25-4.707h7.218l-.622-3h-2.612l2.21-1.69-1.319-4.911-10.386 6.81-8.98-1.178z" color="#000" font-family="sans-serif" font-weight="400" overflow="visible" style="line-height:normal;font-variant-ligatures:normal;font-variant-position:normal;font-variant-caps:normal;font-variant-numeric:normal;font-variant-alternates:normal;font-variant-east-asian:normal;font-feature-settings:normal;font-variation-settings:normal;text-indent:0;text-align:start;text-decoration:none;text-decoration-line:none;text-decoration-style:solid;text-decoration-color:#000;text-transform:none;text-orientation:mixed;shape-padding:0;shape-margin:0;inline-size:0;isolation:auto;mix-blend-mode:normal"/>
    <path fill="#fff" d="M53.148 24.5c-.47.012-.924.171-1.3.455L41.125 33.03l-2.598-3.273a2.255 2.255 0 0 0-3.177-.361 2.277 2.277 0 0 0-.36 3.19l5.336 6.724 14.235-10.721a2.277 2.277 0 0 0 .453-3.178 2.26 2.26 0 0 0-1.866-.91zm-31.648 1c-4.4 0-8 3.6-8 8s3.6 8 8 8 8-3.6 8-8-3.6-8-8-8m0 3c2.78 0 5 2.22 5 5s-2.22 5-5 5-5-2.22-5-5 2.22-5 5-5" color="#000" font-family="sans-serif" font-weight="400" overflow="visible" style="line-height:normal;font-variant-ligatures:normal;font-variant-position:normal;font-variant-caps:normal;font-variant-numeric:normal;font-variant-alternates:normal;font-variant-east-asian:normal;font-feature-settings:normal;font-variation-settings:normal;text-indent:0;text-align:start;text-decoration:none;text-decoration-line:none;text-decoration-style:solid;text-decoration-color:#000;text-transform:none;text-orientation:mixed;shape-padding:0;shape-margin:0;inline-size:0;isolation:auto;mix-blend-mode:normal"/>
    <circle cx="21.5" cy="33.5" r="4.7" fill="#383844"/>
  </g>
  <g style="stroke-width:2.73457" transform="matrix(.36078 0 0 .37066 42.353 41.019)">
    <path fill="#666" d="M20 35V2H9.3C7.5 2 6 3.5 6 5.3v53.3C6 60.5 7.5 62 9.3 62H41c1.8 0 3.3-1.5 3.3-3.3V35Z" style="stroke-width:5.0738"/>
    <path fill="#fff" d="M44.3 2H20v8.3h-7.2v42.2h24.7V35h6.8z" style="stroke-width:5.0738"/>
    <circle cx="25.2" cy="42.8" r="5.8" fill="#666" style="stroke-width:5.0738"/>
    <path fill="#1d83d4" d="M33.4 29.1 25.8 35V3.7c0-.9.8-1.7 1.7-1.7h30.8c.9 0 1.7.8 1.7 1.7v23.7c0 .9-.8 1.7-1.7 1.7z" style="stroke-width:5.0738"/>
  </g>
</svg>