<svg xmlns="http://www.w3.org/2000/svg" width="64" height="64" viewBox="0 0 64 64">
  <style>.st0{fill:#ffa54b}</style>
  <g id="formidable">
    <path d="M27.6 30.8c0-1.1.9-2 2-2H38c-1.9-9.8-5.5-19-17-19v39.3c2.5 0 4.7-.2 6.6-.7z" class="st0"/>
    <path d="M29.6 12.5c-1.5 3.1-2.7 11.4-1 12.2s7.5 3.3 7.8-.8c.2-4.8.1-22.1.1-22.1s-5.4 7.6-6.9 10.7m-17.3 0c1.5 3.1 2.7 11.4 1 12.2S5.8 28 5.5 24c-.2-4.8-.1-22.2-.1-22.2s5.4 7.6 6.9 10.7" style="fill:#b47d5a"/>
    <path d="M21 9.8c-12.6 0-15.7 11-17.5 21.8-1.9 10.7 4 17.5 17.5 17.5z" class="st0"/>
    <path d="M16.9 37.8c-1.3.1-2.4 1.7-2.4 3.4 0 1.6.6 2.8 2.9 2.8 1.6 0 2.6-.4 3.7-.9 1.1.6 2 .9 3.7.9 2.3 0 2.9-1.2 2.9-2.8 0-2.2-1.9-4.4-3.8-2.8 0 2.3-2.5 2-2.8 4.2-.3-2.2-2.8-1.9-2.8-4.2-.5-.4-1-.6-1.4-.6" style="fill:#ffdeb7"/>
    <path d="M18.6 37.3h-.1c-.4.1-.7.5-.7.9 0 0 .1.7.5 1.4s1.3 1.6 2.6 1.6 2.1-.8 2.6-1.6c.4-.7.6-1.4.6-1.4.1-.4-.2-.8-.6-.9s-.8.2-.9.6c0 0-.1.5-.4.9-.3.5-.6.8-1.2.8-.7 0-1-.3-1.2-.8-.3-.4-.3-.9-.3-.9q-.3-.6-.9-.6M14.3 39c-.3 0-.6.2-.7.5-.5 1.4-.4 2.7.3 3.7.6.9 1.6 1.5 2.6 1.7.5.1 1 .2 1.5.2.1.3.2.6.4.9.4.7 1.3 1.6 2.6 1.6s2.1-.8 2.6-1.6c.2-.3.3-.6.4-.9.5 0 1-.1 1.6-.2 1-.3 2-.8 2.6-1.7s.8-2.2.3-3.7c-.1-.3-.4-.5-.8-.5h-.2c-.4.1-.6.6-.5 1 .4 1.1.2 1.8-.1 2.3s-.9.9-1.7 1.1c-.7.2-1.6.2-2.3 0-.6-.2-1-.5-1.1-.8-.1-.2-.3-.4-.5-.5h-.5c-.2.1-.4.3-.5.5-.1.3-.5.6-1.1.8-.7.2-1.5.2-2.3 0-.7-.2-1.4-.6-1.7-1.1s-.5-1.2-.1-2.3c.1-.4-.1-.9-.5-1zm6.6 5.1c.4.3.9.6 1.4.7-.1.1-.1.2-.2.3-.2.5-.5.9-1.1.9-.7 0-1-.3-1.2-.8-.1-.1-.1-.2-.2-.3.5-.2 1-.4 1.3-.8" style="fill:#464655"/>
    <path d="M21 9.8c-4.5 0-7.6 1.3-10.8 4.1 1.6 10.1 3.7 19.3 7.7 23.2 0 0 .3-3.3 3.1-3.3s3.1 3.3 3.1 3.3c3.9-3.9 6-13.2 7.7-23.2C28.6 11 25.4 9.8 21 9.8" style="fill:#c3875a"/>
    <path d="M21 40.4v2.4" style="fill:none;stroke:#464655;stroke-width:2;stroke-linecap:round"/>
    <path d="M5.4 1.8s5.2 7.2 6.8 10.4c2.3-1.6 5.1-2.5 8.8-2.5V49C7.6 49 1.7 42.2 3.5 31.5c.5-3 1.1-6 2-8.8-.2-5.8-.1-20.9-.1-20.9" style="fill-opacity:.2"/>
    <g transform="translate(0 2)">
      <path d="M37.6 18.8c-.5 0-.9.2-1.3.4l-8.1 6.1-1.8-2.3c-.7-.9-2.1-1.1-3.1-.3-.6.5-.9 1.3-.8 2.1-.5-.3-1-.5-1.6-.5s-1.2.2-1.7.6c-.6-3-3.3-5.3-6.5-5.3-3.5 0-6.5 2.8-6.7 6.3H3.7c-.4 0-.8.4-.8.8s.4.8.8.8h2.5c.6 3.1 3.3 5.5 6.6 5.5 3.4 0 6.3-2.6 6.6-6 .5-.8 1.1-1.1 1.6-1.1.6 0 1.2.4 1.7 1.2.1.2.4.4.7.4h1l3.1 3.9 5.2-3.9h5.6c.4 0 .8-.4.8-.8s-.4-.8-.8-.8h-3.5l4.2-3.2c1-.7 1.1-2.1.4-3-.5-.6-1.1-1-1.8-.9m0 .8c.4 0 .9.2 1.1.6h0c.5.6.3 1.5-.3 1.9l-5 3.8h-4.6l8-6h0c.2-.2.5-.3.8-.3m-24.9.7c3 0 5.5 2.3 5.8 5.2l-.3.3H17c-.2-2.2-2-3.9-4.3-3.9-2.4 0-4.3 1.9-4.3 4.3q0 0 0 0c0 2.4 1.9 4.3 4.3 4.3h0c1.9 0 3.6-1.3 4.2-3.1h1.6c-.6 2.7-2.9 4.7-5.8 4.7-2.8 0-5.2-2-5.8-4.7.4-.1.7-.4.7-.8s-.3-.8-.8-.8c.2-3 2.8-5.5 5.9-5.5m0 2.4c1.8 0 3.3 1.4 3.5 3.1h-1.5c-.4 0-.8.4-.8.8s.4.8.8.8H16c-.5 1.4-1.8 2.4-3.3 2.4-1.9 0-3.5-1.5-3.5-3.5v-.1c0-1.9 1.5-3.5 3.5-3.5m11.9.3c.5 0 .9.2 1.2.5l2 2.5c-.1-.1-.3-.2-.5-.2h-3.2l-.5-.6c-.5-.6-.4-1.5.2-2q0 0 0 0c.3-.1.5-.2.8-.2m3.3 3.3.1.2h0v.2c0 .4.4.8.8.8h2.5l-3.8 2.8-2.3-2.8h1.9c.4 0 .8-.4.8-.8.1-.2.1-.3 0-.4" style="fill:#383844;stroke:#383844;stroke-linecap:round;stroke-linejoin:round"/>
      <path d="m12.9 25.8-8.5.4S4 28 3.9 28.7h1.7c1 3 3.8 5.1 7.1 5.1 3.7 0 6.8-2.7 7.4-6.2.3-.3.6-.5.9-.5.4 0 .9.3 1.3 1 .2.4.6.6 1 .6h1.2l2.9 3.7 4.9-3.7H38l-.5-2.4h-2.1l1.7-1.3-1-3.9-8.1 5.3-7-.9z" style="fill:#383844;fill-opacity:.3"/>
      <path d="M37.6 19.2c-.4 0-.7.1-1 .4l-8.4 6.3-2-2.6c-.6-.8-1.7-.9-2.5-.3s-.9 1.7-.3 2.5l4.2 5.3 11.2-8.4c.8-.6.9-1.7.4-2.5-.5-.5-1-.8-1.6-.7m-24.9.7c-3.5 0-6.3 2.8-6.3 6.3s2.8 6.3 6.3 6.3 6.3-2.8 6.3-6.3-2.8-6.3-6.3-6.3m0 2.4c2.2 0 3.9 1.7 3.9 3.9s-1.7 3.9-3.9 3.9-3.9-1.7-3.9-3.9 1.7-3.9 3.9-3.9" style="fill:#fff"/>
      <circle cx="12.7" cy="26.2" r="3.7" style="fill:#383844"/>
    </g>
  </g>
  <g id="reponse">
    <path fill="#119914" d="M54.23 29.72c-.63 0-1.1.16-1.58.63l-13.24 9.93-3.15-4.1c-.95-1.26-2.68-1.42-3.94-.47s-1.42 2.68-.47 3.94l6.62 8.36 17.66-13.24c1.26-.95 1.42-2.68.63-3.94-.79-.79-1.58-1.26-2.52-1.1"/>
    <path fill="#1d83d4" d="m49.32 56.66-.58 6.26 3.92-2.21c.2-.11.45-.12.66 0l3.93 2.21-.58-6.26c-2.36.9-4.99.9-7.35 0"/>
    <circle cx="53" cy="47" r="3" fill="#1d83d4"/>
    <path fill="#1d83d4" d="M53 37.99a9 9 0 0 0 0 18 9 9 0 0 0 0-18M53 53c-3.31 0-6-2.69-6-6s2.69-6 6-6 6 2.69 6 6-2.69 6-6 6"/>
  </g>
</svg>