<svg xmlns="http://www.w3.org/2000/svg" viewBox="0 0 64 64" xml:space="preserve" width="64" height="64">
  <path fill="#666" d="M5.5 19.8A29.5 29.5 0 0 1 62 32 29.6 29.6 0 0 1 5.5 44.3h7.4c.4 0 .6.1.8.4 3.9 5.6 9.2 8.9 16 9.8a22.7 22.7 0 1 0-16-35.3c-.3.4-.5.5-1 .5l-7.2.1z"/>
  <path fill="#1d83d4" d="M16.2 27.7h12.1c.9 0 .9 0 .9-.8v-4.4c0-.3.2-.8.4-1 .3-.3.7 0 1.1.2l12.8 9.4c.9.6.9 1.1 0 1.8l-12.8 9.4c-.3.2-.7.5-1.1.2l-.5-1V37c0-.6-.2-.7-.7-.7H3.7c-1-.1-1.7-.7-1.7-1.7v-5.2c0-1 .7-1.7 1.9-1.7h12.3z"/>
</svg>