<svg xmlns="http://www.w3.org/2000/svg" width="64" height="64" viewBox="0 0 64 64">
  <path fill="#fff" d="M6 9h52v46H6z"/>
  <path fill="#1d83d4" d="M22 22h20v20H22z"/>
  <path fill="#fff" d="M28 28h8v8h-8z"/>
  <path fill="#888" d="m50 16.878-4.242 4.243-2.829-2.828 4.243-4.243zM16.828 13.95l4.243 4.242-2.828 2.829L14 16.778zM14 47.222l4.242-4.243 2.829 2.828-4.243 4.243zM45.757 42.979 50 47.22l-2.828 2.829-4.243-4.243z"/>
  <path fill="#666" d="M58.3 5.8c1.6 0 2.9 1.3 2.9 2.9v46.7c0 1.6-1.3 2.9-2.9 2.9H5.8c-1.6 0-2.9-1.3-2.9-2.9V8.7c0-1.6 1.3-2.9 2.9-2.9h52.5zm-3 5.8H8.7v40.8h46.7V11.6z"/>
</svg>