<svg xmlns="http://www.w3.org/2000/svg" viewBox="0 0 64 64" width="64" height="64">
  <path d="M48.3 23.2C47.1 11.3 37.1 2.1 25 2.1 12 2.1 1.5 12.6 1.5 25.5c0 12.1 9.1 22 20.9 23.3.7-13.9 11.9-25 25.9-25.6z" fill="#fff"/>
  <path d="M23.8 41.5c-2-4.2-3.2-8.7-3.5-13.6h9.2c-.1 1.5-.3 3.1-.6 4.6 4.7-5.4 11.6-9 19.3-9.3C47.1 11.3 37.1 2.1 25 2.1 12 2.1 1.5 12.6 1.5 25.5c0 12.1 9.1 22 20.9 23.3.1-2.5.6-5 1.4-7.3zm19.8-18.3h-9.3c-.3-5.4-1.6-10.7-3.9-15.6 7 2.1 12.2 8.2 13.2 15.6zM25 7.4c2.7 4.9 4.3 10.3 4.6 15.8h-9.2c.3-5.6 1.8-11 4.6-15.8zM6.3 27.9h9.3c.3 5.4 1.6 10.7 3.9 15.6-7-2.1-12.2-8.2-13.2-15.6zm9.3-4.7H6.3c.9-7.4 6.1-13.5 13.2-15.6-2.2 4.9-3.6 10.2-3.9 15.6z" fill="#1d83d4"/>
  <path d="M40.6 33.4c.3-1.6.5-2.8.8-3.7.4-1.1 1.1-1.7 2.1-1.7.5 0 1 .1 1.3.3.8.4 1.2.9 1.2 1.7 0 .2 0 .5-.1.8-.1.4-.3 1.1-.4 2.1 1.9-.3 3.8-.7 5.6-1.1.3-.2.6-.2.9-.2 1 0 1.7.5 1.9 1.5.1.3.2.6.2.9 0 1.1-.6 1.8-1.9 2.1-1.7.4-4.1.9-7.4 1.3-.2 1.1-.3 2.5-.4 4 1.6-.4 3.3-.7 5-.9.1-.2.1-.4.2-.5.2-.6.4-1 .5-1.2.4-.4.8-.5 1.4-.5 1.7 0 2.6.7 2.6 2 0 .2 0 .4-.1.7 2 .5 3.7 1.3 4.9 2.5 2.1 1.8 3.2 4.1 3.2 6.9 0 4.1-1.9 7.3-5.9 9.3-1.1.6-2.5 1.1-3.8 1.4-.6.2-1.1.3-1.4.3-1.1 0-1.7-.6-1.7-1.8 0-.7.5-1.3 1.5-1.7 2.2-.8 3.7-1.8 4.7-2.8 1.1-1.2 1.7-2.9 1.7-4.9 0-3-1.5-4.9-4.4-5.9C50.6 49 48 52.4 45 54.8v.2c.2.8.4 1.3.4 1.6.2.4.2.9.2 1.3 0 1-.4 1.7-1.3 2-.4.2-.8.3-1.1.3-1 0-1.6-.5-1.9-1.5-.1-.4-.2-.7-.3-.8-2.1 1.2-3.9 1.9-5.2 1.9s-2.4-.6-3.2-1.8c-.6-1-1-2.3-1-4 0-4.1 2.7-7.7 8.2-10.8.1-1.3.2-3.2.4-5.4-1.9.1-3.3.2-4 .2s-1.2-.2-1.6-.4c-.5-.4-.8-1-.8-1.7 0-.9.4-1.6 1.1-1.9.4-.2.7-.3 1.1-.3h.4c1-.1 2.4-.1 4.2-.3zm-1 14.4c-2.5 1.9-3.7 3.8-3.7 5.6 0 1.1.3 1.7.9 1.7.7 0 1.8-.5 3.3-1.5-.4-2.1-.5-4-.5-5.8zm8.4-3.7c-1.2.2-2.6.5-3.9 1.1v1.3c0 1 0 2.1.1 3.4 1.5-1.7 2.8-3.6 3.8-5.8z" fill="#666"/>
</svg>