<svg xmlns="http://www.w3.org/2000/svg" viewBox="0 0 64 64" width="64" height="64">
  <path fill="#fff" d="M10 7.3h43.3v46.5H10V7.3z"/>
  <path fill="#666" d="M53.3 27.1c-1.7.6-3.4.9-5.2.9v4c1.8 0 3.6.3 5.2.9v-5.8zM32.7 48.7H11.9V12.5h20.7c0-1.8.3-3.5.9-5.2H9.3c-1.4 0-2.6 1.2-2.6 2.6v41.3c0 1.4 1.2 2.6 2.6 2.6h24.6c-.7-1.6-1.1-3.3-1.2-5.1z"/>
  <path fill="#f43737" d="M48.1 22.8c-5.7 0-10.3-4.6-10.3-10.3S42.4 2.2 48.1 2.2s10.3 4.6 10.3 10.3-4.6 10.3-10.3 10.3z"/>
  <path fill="#1d83d4" d="M38.3 51.7c-.4-1.5-.4-3.1 0-4.6l-2.8-1.6 2.8-4.9 2.8 1.6c1.1-1.1 2.5-1.9 4-2.3v-3.3h5.7v3.3c1.5.5 2.9 1.3 4 2.3l2.8-1.6 2.8 4.9-2.8 1.6c.4 1.5.4 3.1 0 4.6l2.8 1.6-2.8 5-2.8-1.6c-1.1 1.1-2.5 1.9-4 2.3v3.3h-5.7V59c-1.5-.4-2.9-1.2-4-2.3l-2.8 1.6-2.8-4.9c.1 0 2.8-1.7 2.8-1.7zm9.8 2c2.4.1 4.3-1.8 4.4-4.1.1-2.4-1.8-4.3-4.1-4.4h-.3c-2.4.1-4.2 2.1-4.1 4.4 0 2.2 1.8 4 4.1 4.1z"/>
</svg>