<svg xmlns="http://www.w3.org/2000/svg" viewBox="0 0 64 64" width="64" height="64">
  <path fill="#aaa" d="M58 29.1V22H45v7.1H30.7v6H45v7h13v-7h4v-6h-4zM49 26h5v3.1h-5V26zm-.3 14.2c-1.2 0-2.1-1-2.1-2.1 0-1.2 1-2.1 2.1-2.1s2.1 1 2.1 2.1-1 2.1-2.1 2.1zm5.8 0c-1.2 0-2.1-1-2.1-2.1 0-1.2 1-2.1 2.1-2.1s2.1 1 2.1 2.1c.1 1.1-.9 2.1-2.1 2.1z"/>
  <path fill="#1d83d4" d="M31 28h-4.7c-1.2-3.5-4.3-6.4-7.8-7.7C12.1 18 5 21.4 2.7 27.9c-2.3 6.4 1.1 13.5 7.5 15.8S24 42.5 26.3 36H31v-8zm-16.6 8.1c-2.3 0-4.1-1.8-4.1-4.1s1.8-4.1 4.1-4.1 4.1 1.8 4.1 4.1-1.8 4.1-4.1 4.1z"/>
</svg>