<svg xmlns="http://www.w3.org/2000/svg" width="64" height="64" viewBox="0 0 64 64">
  <path fill="#fff" d="M11 11.3h8L18.8 3h26.5l-.3 8.3h8V57H11V11.3z"/>
  <path fill="#888" d="M18 20c-1.1 0-2 .9-2 2s.9 2 2 2h10c1.1 0 2-.9 2-2s-.9-2-2-2H18z"/>
  <path fill="#666" d="M17.5 2c-.8 0-1.5.7-1.5 1.5V6h-2.8C9.3 6 6 9.3 6 13.2v41.5c0 3.9 3.3 7.2 7.2 7.2h37.6c3.9 0 7.2-3.3 7.2-7.2V13.2C58 9.3 54.7 6 50.8 6H48V3.5c0-.8-.7-1.5-1.5-1.5h-29zM19 5h26v7H19V5zm-5.8 6H16v2.5c0 .8.7 1.5 1.5 1.5h29c.8 0 1.5-.7 1.5-1.5V11h2.8c1.3 0 2.2.9 2.2 2.2v41.5c0 1.3-.9 2.2-2.2 2.2H13.2c-1.3 0-2.2-.9-2.2-2.2V13.2c0-1.3.9-2.2 2.2-2.2z"/>
  <path fill="#fff" d="M24 24h38v38H24z"/>
  <path fill="#1d83d4" d="M56.1 46.2H62v4.1h-5.9v-4.1zm0 8.2v-4.1H52v-4.1h-5.9v6.4H52v1.8h-2.3v1.8h-3.5V62h3.5v-3.5h4.7v-4.1h1.7zm2.4-.6v4.7h-4.1V62H62v-8.2h-3.5zM46.2 28v15.8H62V28H46.2zm12.3 12.3h-8.8v-8.8h8.8v8.8z"/>
  <path fill="#1d83d4" d="M52 33.9h4.1V38H52v-4.1zM28 28v15.8h15.8V28H28zm12.3 12.3h-8.8v-8.8h8.8v8.8z"/>
  <path fill="#1d83d4" d="M33.9 33.9H38V38h-4.1v-4.1zM28 46.2V62h15.8V46.2H28zm12.3 12.3h-8.8v-8.8h8.8v8.8z"/>
  <path fill="#1d83d4" d="M33.9 52H38v4.1h-4.1V52z"/>
</svg>