<svg xmlns="http://www.w3.org/2000/svg" viewBox="0 0 64 64" width="64" height="64">
  <path fill="#666" d="M7.7 2h40.6c3.1 0 5.6 2.5 5.6 5.7v40.6c0 3.1-2.5 5.7-5.7 5.7H7.7C4.5 54 2 51.4 2 48.2V7.7C2 4.5 4.5 2 7.7 2z"/>
  <path fill="#fff" d="M35.8 20.2C28.7 13.1 19.4 9.3 9.4 9.3v7.4c8 0 15.5 3.1 21.2 8.8 5.6 5.6 8.8 13.2 8.8 21.2h7.4c-.1-10.1-3.9-19.6-11-26.5z"/>
  <path fill="#fff" d="M9.4 21.6V29C19.1 29 27 36.9 27 46.6h7.4c-.2-13.8-11.3-25-25-25z"/>
  <circle fill="#fff" cx="14.6" cy="41.5" r="5.3"/>
  <path fill="#fff" d="M49.5 26C37.1 26 27 36.1 27 48.5c0 1.9.2 3.7.7 5.5h20.5c3.2 0 5.7-2.6 5.7-5.7V26.4c-1.4-.2-2.9-.4-4.4-.4z"/>
  <path fill="#1d83d4" d="M39.7 51.3c-.4-1.5-.4-3.1 0-4.6l-2.8-1.6 2.8-4.9 2.8 1.6c1.1-1.1 2.5-1.9 4-2.3v-3.3h5.7v3.3c1.5.5 2.9 1.3 4 2.3l2.8-1.6 2.8 4.9-2.8 1.6c.4 1.5.4 3.1 0 4.6l2.8 1.6-2.8 5-2.8-1.6c-1.1 1.1-2.5 1.9-4 2.3v3.3h-5.7v-3.3c-1.5-.4-2.9-1.2-4-2.3l-2.8 1.6-2.8-4.9 2.8-1.7zm9.7 2c2.4.1 4.3-1.8 4.4-4.1.1-2.4-1.8-4.3-4.1-4.4h-.3c-2.4.1-4.2 2.1-4.1 4.4 0 2.2 1.8 4 4.1 4.1z"/>
</svg>