<svg xmlns="http://www.w3.org/2000/svg" version="1.1" viewBox="0 0 64 64" width="64" height="64">
  <g id="layer1" transform="translate(-367.15472,-296.78399)">
    <g id="g30546" transform="matrix(-1.6573124,-0.2630051,-0.2630051,1.6573124,1777.4673,1298.1908)">
      <g id="g7027" transform="translate(-761.3439,125.19658)">
        <path id="path7029" fill="#41494c" d="          M1649.5-569.3c-0.6-0.1-1.1-0.1-1.7,0.1c-0.5,0.1-1,0.3-1.4,0.7c-0.4,0.3-0.7,0.7-0.9,1.1c0,0,0,0.1,0,0.2          c0,0.2,0,0.3,0.1,0.4c0.1,0.1,0.2,0.2,0.4,0.2l0.6,0.1c0.2,0,0.3,0,0.4,0c0.1-0.1,0.2-0.2,0.3-0.4c0.2-0.2,0.5-0.4,0.8-0.5          c0.3-0.1,0.7-0.1,1.1-0.1c0.5,0.1,0.9,0.3,1.3,0.6c0.3,0.3,0.5,0.7,0.4,1c-0.1,0.3-0.3,0.6-0.6,0.7c-0.4,0.1-1,0.3-1.9,0.4          c-0.7,0.1-1.4,0.2-1.9,0.4c-0.5,0.1-1,0.4-1.4,0.7c-0.4,0.4-0.7,0.9-0.8,1.5c-0.1,0.6,0,1.2,0.3,1.8c0.3,0.6,0.7,1,1.3,1.4          c0.6,0.4,1.2,0.6,2,0.8c0.6,0.1,1.3,0.1,1.9,0c0.6-0.1,1.1-0.4,1.6-0.7c0.4-0.3,0.8-0.8,1-1.2c0,0,0-0.1,0-0.2          c0-0.2,0-0.3-0.1-0.4c-0.1-0.1-0.2-0.2-0.4-0.2l-0.6-0.1c-0.2,0-0.3,0-0.4,0.1c-0.1,0.1-0.2,0.2-0.3,0.3          c-0.2,0.3-0.5,0.5-1,0.6c-0.4,0.1-0.9,0.2-1.4,0.1c-0.4-0.1-0.8-0.2-1.1-0.4s-0.6-0.4-0.8-0.7c-0.2-0.3-0.2-0.5-0.2-0.8          c0-0.2,0.1-0.4,0.3-0.5c0.2-0.1,0.4-0.3,0.8-0.3s0.8-0.2,1.5-0.2c0.7-0.1,1.4-0.2,1.9-0.3c0.5-0.1,1-0.4,1.4-0.7          c0.4-0.4,0.7-0.8,0.8-1.5c0.1-0.6,0-1.1-0.2-1.6c-0.3-0.5-0.6-1-1.1-1.3C1650.8-568.9,1650.2-569.2,1649.5-569.3          L1649.5-569.3z"/>
      </g>
      <path id="path7041" fill="#1c1f20" d="M893.2-456.1c1.7,0.2,3.2,1.3,4,2.7c-3.7,0.8-7,3.1-8.9,6.2c-0.9-1-1.4-2.3-1.4-3.8         c0.1-3,2.7-5.3,5.7-5.2C892.8-456.1,893-456.1,893.2-456.1z M897.7-452.4c0.2,0.6,0.3,1.2,0.3,1.9c-0.1,3-2.7,5.3-5.7,5.2         c-1.2,0-2.2-0.4-3.1-1.1c0,0,0,0-0.1,0C890.9-449.3,894.3-451.7,897.7-452.4z"/>
      <path id="path7043" fill="#6f7c81" d="M895.6-432.5c2,0.2,3.5,1.9,3.4,3.9c0,0.1,0,0.2,0,0.3c-0.3,0-0.7-0.1-0.9-0.1         c-2.1-0.3-4.3-1.4-5.9-2.6c0.7-1,1.9-1.5,3.2-1.5C895.4-432.5,895.5-432.5,895.6-432.5z M891.6-430.1c1.7,1.3,4,2.3,6.3,2.7         c0.2,0,0.5,0.1,0.8,0.1c-0.6,1.4-2.1,2.3-3.6,2.3c-2.1-0.1-3.8-1.8-3.7-3.9C891.4-429.3,891.5-429.7,891.6-430.1z"/>
      <path id="path7045" fill="#2e3536" d="M908.5-436.4c1,0.2,2,0.7,2.8,1.3c-2,3.7-6.4,6.6-10.7,6.8c-0.2-0.6-0.2-1.2-0.2-1.9         c0.1-3.7,3.3-6.5,7-6.4C907.7-436.5,908.1-436.5,908.5-436.4z M912.1-434.4c1.2,1.3,1.9,3,1.8,4.7c-0.1,3.7-3.3,6.5-7,6.4         c0,0,0,0,0,0c-2.6-0.1-4.9-1.7-6-4C905.5-427.6,909.9-430.4,912.1-434.4z"/>
      <path id="path7047" fill="#535d61" d="M911.2-458.2c5.4,0.6,9.5,5.2,9.3,10.5c-0.2,4.2-3,7.9-7.1,9.2c0.9-7.1-4-13.9-11.3-15         c-0.2,0-0.4-0.1-0.7-0.1c2-3,5.4-4.8,9.1-4.7C910.7-458.2,911-458.2,911.2-458.2z M901.9-452.5c6.8,1.1,11.3,7.7,10.3,14.3         c-0.8,0.2-1.6,0.2-2.4,0.2c-5.7-0.2-10.2-4.9-10-10.5c0,0,0,0,0,0c0.1-1.4,0.4-2.8,1.1-4.1         C901.2-452.6,901.8-452.5,901.9-452.5z"/>
      <path id="path7051" fill="none" d="         M886.7-451c-0.1,1.5,0.5,2.9,1.5,4c0.3,0.3,0.5,0.5,0.8,0.7c0.9,0.6,2,1.1,3.2,1.1c3.1,0.1,5.8-2.3,5.9-5.3         c0.1-3.1-2.4-5.7-5.5-5.8S886.9-454,886.7-451L886.7-451z"/>
      <path id="path7053" fill="none" d="         M899.5-448.5c-0.2,5.7,4.4,10.5,10.2,10.8c0,0,0,0,0,0c5.8,0.2,10.7-4.2,10.9-9.9c0.2-5.7-4.4-10.5-10.2-10.8l0,0         C904.6-458.7,899.7-454.2,899.5-448.5L899.5-448.5z"/>
      <path id="path7055" fill="none" d="         M900.1-430.2c-0.1,3.8,2.9,7,6.8,7.1c0,0,0,0,0,0c3.9,0.2,7.1-2.8,7.2-6.6c0,0,0,0,0,0c0.1-3.8-2.9-7-6.8-7.1c0,0,0,0,0,0         C903.5-436.9,900.2-433.9,900.1-430.2C900.1-430.2,900.1-430.2,900.1-430.2z"/>
      <path id="path7057" fill="none" d="         M891.2-428.9c-0.1,2.2,1.7,4,3.9,4.1c2.2,0.1,4.1-1.6,4.2-3.8c0,0,0,0,0,0c0.1-2.2-1.7-4-3.9-4.1c0,0,0,0,0,0         C893.1-432.8,891.2-431.1,891.2-428.9z"/>
    </g>
  </g>
</svg>