<svg xmlns="http://www.w3.org/2000/svg" viewBox="0 0 64 64" width="64" height="64">
  <path fill="#fff" d="m38.8 6.7-31.6.6v51.5h45.7V17.9L38.8 6.7z"/>
  <path fill="#666" d="M37.6 2.2h-5.5v21.2h20.8v-5.5L37.6 2.2zm0 15.7v-7.5l7.5 7.5h-7.5z"/>
  <path fill="#666" d="M24.3 53.2H7.7V7.8h24.4V2.2H4.8C3.2 2.2 2 3.5 2 5v51c0 1.6 1.3 2.8 2.8 2.8h20.7c-.6-1.8-1-3.7-1.2-5.6zM50.3 25.4c.9 0 1.7 0 2.5.1v-2.2l-5.5.1v2.2c1.1-.1 2-.2 3-.2z"/>
  <path fill="#1d83d4" d="m47.1 38.5 2.5 2.5c4.9 4.9 4.9 12.9 0 17.9l-.6.7c-4.9 4.9-12.9 4.9-17.9 0s-5-12.9 0-17.9l2.5 2.5c-3.5 3.5-3.5 9.3-.1 12.8 3.5 3.5 9.3 3.5 12.8.1l.1-.1.7-.7c3.5-3.5 3.5-9.3 0-12.8L44.6 41c0 .1 2.5-2.5 2.5-2.5zm12.2 10.9-2.5-2.5c3.5-3.5 3.5-9.3.1-12.8-3.5-3.5-9.3-3.5-12.8-.1l-.1.1-.7.7c-3.5 3.5-3.5 9.3 0 12.8l2.5 2.5-2.5 2.5-2.5-2.5c-4.9-4.9-4.9-12.9 0-17.9l.7-.7c4.9-4.9 12.9-4.9 17.9 0s4.8 12.9-.1 17.9z"/>
</svg>