<svg xmlns="http://www.w3.org/2000/svg" width="512" height="512"><rect width="68.1" height="65.1" x="416" y="26.1" rx="0" ry="4.78" fill="none" stroke="#666" stroke-width="18.898" stroke-linejoin="round" paint-order="markers stroke fill"/><path d="M68.7 340H32.9A17.8 17.8 0 0 1 15 321V34.2a17.9 17.9 0 0 1 17.9-17.9H363s17 0 17 17.9V321a17.9 17.9 0 0 1-17 19zM338 232V52H51.3v252L230 125Zm0 53L230 178 105 304h233ZM123 160a36.4 36.4 0 1 1 0-72 36.4 36.4 0 0 1 0 72z" fill="#666"/><rect width="68.1" height="65.1" x="416" y="147" rx="0" ry="4.78" fill="none" stroke="#666" stroke-width="18.898" stroke-linejoin="round" paint-order="markers stroke fill"/><rect width="68.1" height="65.1" x="416" y="267" rx="0" ry="4.78" fill="none" stroke="#666" stroke-width="18.898" stroke-linejoin="round" paint-order="markers stroke fill"/><ellipse cx="226" cy="388" rx="99.1" ry="98.5" fill="#fff" fill-rule="evenodd" stroke="#666" stroke-width="22.988"/><path d="M280 390.08 189.7 443V336.08z" fill="#666" paint-order="markers stroke fill"/></svg>